<?xml version="1.0" encoding="UTF-8"?>
<svg xmlns="http://www.w3.org/2000/svg" xmlns:xlink="http://www.w3.org/1999/xlink" width="375pt" height="374.999991pt" viewBox="0 0 375 374.999991" version="1.2">
<defs>
<clipPath id="clip1">
  <path d="M 9.546875 3 L 349 3 L 349 346 L 9.546875 346 Z M 9.546875 3 "/>
</clipPath>
<clipPath id="clip2">
  <path d="M 34.285156 0.207031 L 365.796875 0.207031 L 365.796875 373.886719 L 34.285156 373.886719 Z M 34.285156 0.207031 "/>
</clipPath>
<clipPath id="clip3">
  <path d="M 23 9.261719 L 343 9.261719 L 343 374.824219 L 23 374.824219 Z M 23 9.261719 "/>
</clipPath>
</defs>
<g id="surface1">
<g clip-path="url(#clip1)" clip-rule="nonzero">
<path style=" stroke:none;fill-rule:nonzero;fill:rgb(93.728638%,17.248535%,37.249756%);fill-opacity:1;" d="M 290.625 48.859375 L 291.410156 48.859375 L 291.410156 49.421875 C 291.148438 49.234375 290.886719 49.050781 290.625 48.859375 Z M 296.371094 53.140625 L 297.90625 53.140625 L 297.90625 48.859375 L 302.195312 48.859375 L 302.195312 42.378906 L 297.90625 42.378906 L 297.90625 38.097656 L 291.410156 38.097656 L 291.410156 42.378906 L 287.121094 42.378906 L 287.121094 46.410156 C 247.273438 19.125 194.359375 3.761719 148.21875 3.761719 C 60.367188 3.761719 9.546875 99.308594 9.546875 186.984375 C 9.546875 274.660156 131.519531 345.738281 219.367188 345.738281 C 307.214844 345.738281 348.492188 234.773438 348.492188 147.097656 C 348.492188 109.132812 327.40625 77.179688 296.371094 53.140625 "/>
</g>
<path style=" stroke:none;fill-rule:nonzero;fill:rgb(81.959534%,92.939758%,94.509888%);fill-opacity:1;" d="M 214.667969 84.632812 C 214.933594 86.132812 215.460938 87.636719 216.421875 88.839844 C 216.480469 88.910156 216.585938 88.929688 216.664062 88.882812 C 216.753906 88.828125 216.78125 88.710938 216.730469 88.625 C 215.976562 87.375 215.574219 85.960938 215.390625 84.523438 C 215.320312 83.804688 215.234375 83.066406 215.265625 82.355469 C 215.261719 81.667969 215.449219 80.957031 215.628906 80.261719 C 216.015625 78.863281 216.601562 77.503906 217.207031 76.160156 C 217.824219 74.816406 218.5 73.492188 219.199219 72.179688 C 219.234375 72.113281 219.214844 72.023438 219.152344 71.972656 C 219.082031 71.925781 218.980469 71.941406 218.933594 72.011719 C 218.054688 73.234375 217.285156 74.519531 216.585938 75.851562 C 215.886719 77.1875 215.285156 78.578125 214.839844 80.039062 C 214.65625 80.785156 214.464844 81.539062 214.476562 82.347656 C 214.46875 83.125 214.535156 83.875 214.667969 84.632812 Z M 220.632812 91.0625 C 220.132812 90.996094 219.648438 90.847656 219.136719 90.722656 L 219.125 90.71875 C 219.0625 90.703125 218.996094 90.726562 218.957031 90.78125 C 218.90625 90.851562 218.921875 90.953125 218.996094 91 C 219.4375 91.320312 219.933594 91.578125 220.464844 91.738281 C 220.996094 91.925781 221.558594 91.988281 222.121094 92 C 222.675781 92.003906 223.238281 91.929688 223.773438 91.761719 C 224.304688 91.597656 224.808594 91.378906 225.261719 91.023438 C 225.320312 90.976562 225.351562 90.898438 225.324219 90.820312 C 225.296875 90.722656 225.191406 90.667969 225.09375 90.695312 L 225.074219 90.703125 C 224.597656 90.847656 224.09375 90.976562 223.601562 91.054688 C 223.109375 91.128906 222.613281 91.183594 222.117188 91.179688 C 221.625 91.183594 221.128906 91.144531 220.632812 91.0625 Z M 212.925781 81.890625 C 212.925781 75.222656 222.472656 64.550781 222.472656 64.550781 C 222.472656 64.550781 232.023438 75.222656 232.023438 81.890625 C 232.023438 88.558594 227.746094 93.960938 222.472656 93.960938 C 217.199219 93.960938 212.925781 88.558594 212.925781 81.890625 Z M 247.332031 58.011719 C 247.976562 56.917969 248.984375 55.996094 250.140625 55.417969 L 250.15625 55.410156 C 250.238281 55.367188 250.28125 55.269531 250.246094 55.179688 C 250.210938 55.085938 250.105469 55.035156 250.007812 55.070312 C 248.6875 55.5625 247.539062 56.464844 246.761719 57.65625 C 245.972656 58.859375 245.632812 60.300781 245.75 61.75 C 245.917969 63.21875 246.636719 64.449219 247.351562 65.609375 C 248.113281 66.753906 248.972656 67.8125 249.957031 68.765625 C 250.011719 68.816406 250.09375 68.828125 250.160156 68.78125 C 250.230469 68.730469 250.246094 68.628906 250.195312 68.558594 L 250.191406 68.554688 C 249.40625 67.472656 248.644531 66.371094 247.984375 65.222656 C 247.316406 64.089844 246.730469 62.875 246.542969 61.65625 C 246.429688 60.429688 246.695312 59.105469 247.332031 58.011719 Z M 251.445312 69.917969 C 251.597656 70.226562 251.789062 70.503906 251.984375 70.773438 C 252.179688 71.042969 252.398438 71.289062 252.621094 71.535156 C 252.847656 71.773438 253.078125 72.007812 253.332031 72.222656 C 253.585938 72.441406 253.84375 72.648438 254.144531 72.824219 C 254.199219 72.855469 254.269531 72.859375 254.332031 72.824219 C 254.425781 72.777344 254.464844 72.664062 254.414062 72.566406 C 254.261719 72.257812 254.0625 71.988281 253.863281 71.722656 C 253.667969 71.457031 253.445312 71.210938 253.21875 70.972656 C 252.984375 70.734375 252.753906 70.5 252.492188 70.296875 C 252.234375 70.082031 251.972656 69.878906 251.671875 69.703125 C 251.628906 69.679688 251.570312 69.675781 251.519531 69.699219 C 251.4375 69.738281 251.402344 69.839844 251.445312 69.917969 Z M 244.707031 57.152344 C 251.910156 45.144531 258.363281 57.152344 258.363281 57.152344 C 258.363281 57.152344 264.820312 45.144531 272.023438 57.152344 C 276.492188 64.59375 264.996094 74.644531 260.277344 78.324219 C 259.128906 79.21875 257.605469 79.21875 256.453125 78.324219 C 251.738281 74.644531 240.238281 64.59375 244.707031 57.152344 Z M 287.949219 48.039062 L 292.234375 48.039062 L 292.234375 52.316406 L 297.082031 52.316406 L 297.082031 48.039062 L 301.371094 48.039062 L 301.371094 43.203125 L 297.082031 43.203125 L 297.082031 38.921875 L 292.234375 38.921875 L 292.234375 43.203125 L 287.949219 43.203125 Z M 280.960938 45.621094 C 280.960938 38.117188 287.054688 32.027344 294.578125 32.027344 C 302.097656 32.027344 308.195312 38.117188 308.195312 45.621094 C 308.195312 53.125 302.097656 59.210938 294.578125 59.210938 C 287.054688 59.210938 280.960938 53.125 280.960938 45.621094 Z M 315.972656 228.183594 C 315.644531 228.855469 315.9375 229.667969 316.613281 229.992188 C 317.289062 230.3125 318.105469 230.027344 318.425781 229.351562 L 321.832031 222.230469 L 319.378906 221.0625 Z M 269.796875 182.648438 L 309.65625 182.648438 L 309.65625 180.179688 L 269.796875 180.179688 Z M 263.5 179.027344 C 262.183594 179.027344 261.109375 180.097656 261.109375 181.414062 C 261.109375 182.730469 262.183594 183.800781 263.5 183.800781 C 264.816406 183.800781 265.890625 182.730469 265.890625 181.414062 C 265.890625 180.097656 264.816406 179.027344 263.5 179.027344 Z M 318.378906 181.449219 C 318.378906 180.132812 317.3125 179.0625 315.992188 179.0625 C 314.671875 179.0625 313.601562 180.132812 313.601562 181.449219 C 313.601562 182.765625 314.671875 183.835938 315.992188 183.835938 C 317.3125 183.835938 318.378906 182.765625 318.378906 181.449219 Z M 261.039062 128.992188 C 261.039062 130.304688 262.109375 131.378906 263.429688 131.378906 C 264.746094 131.378906 265.820312 130.304688 265.820312 128.992188 C 265.820312 127.671875 264.746094 126.601562 263.429688 126.601562 C 262.109375 126.601562 261.039062 127.671875 261.039062 128.992188 Z M 316.027344 131.378906 C 317.347656 131.378906 318.417969 130.304688 318.417969 128.992188 C 318.417969 127.671875 317.347656 126.601562 316.027344 126.601562 C 314.707031 126.601562 313.636719 127.671875 313.636719 128.992188 C 313.636719 130.304688 314.707031 131.378906 316.027344 131.378906 Z M 309.597656 142.007812 L 307.085938 130.226562 L 303.992188 130.226562 L 302.910156 135.359375 C 305.554688 137.113281 307.832031 139.375 309.597656 142.007812 Z M 289.730469 131.390625 C 290.230469 131.390625 290.730469 131.410156 291.230469 131.441406 L 290.949219 130.226562 L 275.433594 130.226562 L 273.578125 137.675781 C 277.835938 133.777344 283.503906 131.390625 289.730469 131.390625 Z M 276.042969 127.757812 L 290.378906 127.757812 L 284.414062 101.824219 C 284.285156 101.265625 283.820312 101.0625 283.460938 101.058594 C 283.109375 101.082031 282.632812 101.246094 282.492188 101.808594 Z M 291.792969 130.226562 L 292.089844 131.503906 C 295.753906 131.867188 299.175781 133.054688 302.167969 134.886719 L 303.148438 130.226562 Z M 304.507812 127.757812 L 306.5625 127.757812 L 306.503906 127.472656 C 306.378906 126.898438 305.902344 126.691406 305.535156 126.691406 C 305.167969 126.695312 304.691406 126.898438 304.570312 127.476562 Z M 347.875 136.046875 L 338.707031 110.140625 C 338.527344 109.640625 338.089844 109.472656 337.742188 109.484375 C 337.390625 109.496094 336.964844 109.695312 336.824219 110.207031 L 319.574219 172.421875 C 319.34375 173.242188 318.621094 173.789062 317.769531 173.75 C 317.589844 173.742188 317.425781 173.707031 317.261719 173.65625 L 317.261719 175.128906 L 314.789062 175.128906 L 314.789062 166.390625 L 313.273438 159.273438 C 311.34375 170.507812 301.527344 179.085938 289.730469 179.085938 C 279.367188 179.085938 270.527344 172.46875 267.222656 163.253906 L 265.804688 168.949219 C 265.660156 169.539062 265.257812 169.972656 264.738281 170.179688 L 264.738281 175.128906 L 262.261719 175.128906 L 262.261719 168.820312 L 256.027344 134.203125 C 255.933594 133.695312 255.546875 133.457031 255.210938 133.402344 C 254.875 133.351562 254.429688 133.457031 254.1875 133.910156 L 238.445312 163.078125 C 238.097656 163.726562 237.425781 164.089844 236.691406 164.019531 C 235.957031 163.957031 235.359375 163.488281 235.128906 162.789062 L 221.792969 122.695312 C 221.617188 122.164062 221.164062 122 220.792969 122.019531 C 220.425781 122.046875 219.992188 122.269531 219.886719 122.820312 L 211.609375 165.914062 C 211.449219 166.746094 210.773438 167.335938 209.925781 167.378906 C 209.078125 167.421875 208.34375 166.910156 208.097656 166.101562 L 189.671875 105.753906 C 189.519531 105.25 189.09375 105.0625 188.75 105.054688 C 188.40625 105.0625 187.972656 105.210938 187.796875 105.707031 L 165.808594 167.003906 C 165.519531 167.800781 164.765625 168.277344 163.917969 168.195312 C 163.074219 168.105469 162.425781 167.488281 162.304688 166.652344 L 148.132812 67.429688 C 148.039062 66.792969 147.542969 66.585938 147.136719 66.582031 C 146.734375 66.59375 146.238281 66.828125 146.171875 67.46875 L 134.308594 181.480469 C 134.210938 182.402344 133.5 183.066406 132.574219 183.105469 C 131.648438 183.128906 130.886719 182.53125 130.722656 181.621094 L 118.886719 116.78125 C 118.773438 116.171875 118.269531 115.980469 117.902344 115.96875 C 117.515625 115.976562 117.03125 116.199219 116.9375 116.808594 L 109.613281 164.652344 C 109.457031 165.664062 108.644531 166.148438 107.910156 166.1875 C 107.175781 166.21875 106.316406 165.816406 106.066406 164.828125 L 86.988281 90.140625 C 86.835938 89.542969 86.335938 89.371094 85.949219 89.398438 C 85.566406 89.433594 85.101562 89.683594 85.042969 90.292969 L 76.328125 186.804688 C 76.226562 187.898438 75.355469 188.421875 74.585938 188.449219 C 74.5625 188.449219 74.542969 188.453125 74.523438 188.453125 C 73.765625 188.453125 72.898438 187.980469 72.730469 186.925781 L 61.054688 113.132812 C 60.960938 112.539062 60.488281 112.3125 60.109375 112.300781 C 59.726562 112.289062 59.246094 112.484375 59.113281 113.074219 L 45.9375 172.027344 C 45.714844 173.027344 44.867188 173.464844 44.121094 173.441406 C 43.378906 173.421875 42.554688 172.949219 42.382812 171.9375 L 34.375 124.714844 C 34.273438 124.125 33.796875 123.902344 33.421875 123.894531 C 33.050781 123.878906 32.558594 124.085938 32.433594 124.671875 L 26.210938 153.53125 C 26.039062 154.324219 25.40625 154.882812 24.59375 154.953125 C 23.777344 155.019531 23.058594 154.578125 22.757812 153.820312 L 15.316406 135.265625 C 15.421875 134.792969 15.523438 134.320312 15.632812 133.84375 L 23.523438 153.515625 C 23.722656 154.015625 24.167969 154.164062 24.523438 154.128906 C 24.875 154.101562 25.292969 153.882812 25.40625 153.355469 L 31.628906 124.5 C 31.84375 123.492188 32.695312 123.058594 33.4375 123.074219 C 34.183594 123.089844 35.015625 123.5625 35.183594 124.578125 L 43.195312 171.796875 C 43.296875 172.390625 43.769531 172.609375 44.144531 172.617188 C 44.519531 172.621094 45.003906 172.429688 45.132812 171.847656 L 58.308594 112.894531 C 58.535156 111.882812 59.402344 111.457031 60.136719 111.480469 C 60.882812 111.5 61.707031 111.984375 61.867188 113.003906 L 73.546875 186.796875 C 73.648438 187.429688 74.15625 187.640625 74.554688 187.625 C 74.957031 187.613281 75.449219 187.371094 75.503906 186.730469 L 84.222656 90.21875 C 84.320312 89.171875 85.128906 88.640625 85.886719 88.582031 C 86.640625 88.515625 87.523438 88.914062 87.785156 89.9375 L 106.863281 164.625 C 107.011719 165.199219 107.496094 165.378906 107.867188 165.363281 C 108.242188 165.34375 108.707031 165.117188 108.796875 164.527344 L 116.121094 116.683594 C 116.285156 115.640625 117.125 115.160156 117.886719 115.148438 C 118.644531 115.160156 119.507812 115.589844 119.695312 116.632812 L 131.53125 181.472656 C 131.648438 182.09375 132.144531 182.289062 132.542969 182.28125 C 132.933594 182.265625 133.421875 182.023438 133.484375 181.398438 L 145.351562 67.382812 C 145.464844 66.289062 146.347656 65.773438 147.121094 65.761719 C 147.894531 65.75 148.792969 66.226562 148.949219 67.316406 L 163.121094 166.535156 C 163.203125 167.097656 163.628906 167.339844 164 167.375 C 164.371094 167.414062 164.835938 167.265625 165.03125 166.726562 L 187.019531 105.429688 C 187.289062 104.683594 187.972656 104.210938 188.769531 104.230469 C 189.566406 104.25 190.230469 104.753906 190.460938 105.515625 L 208.886719 165.863281 C 209.050781 166.40625 209.507812 166.570312 209.878906 166.558594 C 210.253906 166.542969 210.691406 166.320312 210.800781 165.761719 L 219.078125 122.664062 C 219.234375 121.84375 219.902344 121.253906 220.738281 121.199219 C 221.574219 121.140625 222.3125 121.640625 222.578125 122.4375 L 235.914062 162.53125 C 236.039062 162.914062 236.359375 163.164062 236.765625 163.199219 C 237.171875 163.234375 237.527344 163.046875 237.722656 162.6875 L 253.457031 133.519531 C 253.828125 132.832031 254.566406 132.46875 255.339844 132.59375 C 256.113281 132.714844 256.699219 133.289062 256.835938 134.058594 L 262.261719 164.167969 L 262.261719 135.347656 L 264.738281 135.347656 L 264.738281 169.210938 C 264.851562 169.097656 264.957031 168.957031 265.007812 168.75 L 266.746094 161.753906 C 266.152344 159.683594 265.832031 157.496094 265.832031 155.238281 C 265.832031 148.859375 268.355469 143.066406 272.457031 138.785156 L 274.582031 130.226562 L 269.796875 130.226562 L 269.796875 127.757812 L 275.195312 127.757812 L 281.691406 101.609375 C 281.898438 100.777344 282.636719 100.230469 283.464844 100.234375 C 284.324219 100.242188 285.027344 100.808594 285.21875 101.640625 L 291.226562 127.757812 L 303.667969 127.757812 L 303.761719 127.308594 C 303.972656 126.316406 304.800781 125.871094 305.535156 125.871094 C 306.269531 125.871094 307.097656 126.3125 307.308594 127.304688 L 307.40625 127.757812 L 309.65625 127.757812 L 309.65625 130.226562 L 307.929688 130.226562 L 310.914062 144.226562 C 312.640625 147.519531 313.621094 151.265625 313.621094 155.238281 C 313.621094 155.734375 313.601562 156.226562 313.574219 156.71875 L 314.789062 162.433594 L 314.789062 135.347656 L 317.261719 135.347656 L 317.261719 172.757812 C 317.429688 172.867188 317.617188 172.921875 317.792969 172.925781 C 318.175781 172.949219 318.625 172.753906 318.777344 172.203125 L 336.027344 109.988281 C 336.242188 109.210938 336.90625 108.691406 337.714844 108.660156 C 338.523438 108.625 339.214844 109.109375 339.484375 109.867188 L 347.363281 132.140625 C 347.558594 133.433594 347.730469 134.738281 347.875 136.046875 Z M 362.375 145.179688 L 355.023438 160.546875 C 354.253906 162.160156 352.597656 163.199219 350.804688 163.199219 C 350.105469 163.199219 349.429688 163.050781 348.796875 162.746094 C 347.667969 162.210938 346.820312 161.269531 346.40625 160.09375 C 345.984375 158.917969 346.054688 157.65625 346.589844 156.527344 L 353.949219 141.160156 C 354.71875 139.546875 356.375 138.507812 358.167969 138.507812 C 358.867188 138.507812 359.542969 138.660156 360.175781 138.960938 C 362.5 140.070312 363.488281 142.859375 362.375 145.179688 "/>
<g clip-path="url(#clip2)" clip-rule="nonzero">
<path style=" stroke:none;fill-rule:nonzero;fill:rgb(36.859131%,78.819275%,79.998779%);fill-opacity:1;" d="M 217.046875 22.367188 C 214.347656 22.769531 206.714844 25.136719 206.714844 25.136719 C 206.714844 25.136719 214.3125 20.359375 216.324219 18.097656 C 218.335938 15.835938 226.53125 12.496094 226.035156 10.316406 C 225.535156 8.132812 220.835938 9.171875 216.835938 11.675781 C 212.839844 14.171875 203.1875 16.632812 203.1875 16.632812 C 203.1875 16.632812 203.097656 15.238281 207.875 12.375 C 212.648438 9.511719 220.273438 6.171875 218.335938 4.007812 C 215.652344 1.007812 196.78125 12.339844 196.78125 12.339844 C 196.78125 12.339844 205.878906 0.230469 201.699219 0.207031 C 197.519531 0.1875 195.625 6.203125 192.109375 8.863281 C 188.597656 11.527344 181.386719 20.835938 181.386719 20.835938 L 152.796875 30.558594 L 164.738281 53.984375 C 164.738281 53.984375 192.90625 35.398438 194.902344 35.917969 C 196.894531 36.441406 205.890625 39.007812 208.445312 38.328125 C 211.003906 37.644531 217.050781 37.242188 218.046875 36.355469 C 219.042969 35.464844 216.496094 33.3125 213.679688 32.90625 C 209.730469 32.34375 204.953125 32.753906 205.386719 31.753906 C 205.820312 30.761719 214.503906 27.777344 217.855469 26.359375 C 221.210938 24.941406 227.257812 22.546875 226.484375 21.074219 C 225.265625 18.765625 219.742188 21.964844 217.046875 22.367188 Z M 359.820312 139.703125 C 357.902344 138.792969 355.609375 139.601562 354.695312 141.515625 L 347.335938 156.886719 C 346.421875 158.800781 347.234375 161.089844 349.148438 162.003906 C 351.066406 162.917969 353.363281 162.109375 354.277344 160.195312 L 361.632812 144.824219 C 362.546875 142.914062 361.738281 140.621094 359.820312 139.703125 Z M 364.78125 148.710938 L 342.933594 182.222656 L 337.300781 179.535156 L 349.683594 141.515625 C 351.261719 136.675781 356.746094 134.324219 361.347656 136.519531 C 365.945312 138.710938 367.558594 144.445312 364.78125 148.710938 Z M 278.167969 307.210938 C 282.601562 307.210938 286.195312 303.054688 286.195312 297.925781 C 286.195312 293.796875 283.867188 286.316406 280.640625 283.554688 L 280.640625 276.683594 C 280.640625 275.324219 279.53125 274.214844 278.167969 274.214844 C 276.800781 274.214844 275.691406 275.324219 275.691406 276.683594 L 275.691406 283.554688 C 272.472656 286.316406 270.140625 293.796875 270.140625 297.925781 C 270.140625 303.054688 273.734375 307.210938 278.167969 307.210938 Z M 239.75 373.589844 L 319.722656 373.589844 L 319.722656 317.6875 L 239.75 317.6875 Z M 56.019531 173.769531 C 61.8125 168.519531 66.820312 163.984375 65.191406 158.96875 C 64.0625 155.5 59.710938 150.96875 51.878906 145.117188 C 50.320312 143.949219 49.519531 142.160156 49.679688 140.210938 C 49.839844 138.277344 50.964844 136.585938 52.695312 135.695312 C 56.207031 133.875 58.390625 130.292969 58.390625 126.34375 L 58.390625 98.683594 C 60.355469 98.429688 62.308594 98 64.222656 97.386719 C 67.410156 96.363281 70.277344 94.707031 72.746094 92.453125 C 73.753906 91.535156 73.824219 89.972656 72.902344 88.964844 C 71.980469 87.960938 70.414062 87.890625 69.40625 88.808594 C 67.46875 90.578125 65.214844 91.882812 62.710938 92.683594 C 57.109375 94.480469 51.191406 94.480469 45.585938 92.683594 C 43.183594 91.910156 41.007812 90.675781 39.117188 89.007812 C 38.089844 88.105469 36.527344 88.199219 35.625 89.222656 C 34.71875 90.242188 34.816406 91.804688 35.839844 92.707031 C 38.242188 94.832031 41.015625 96.40625 44.078125 97.386719 C 47.144531 98.367188 50.289062 98.882812 53.441406 98.953125 L 53.441406 126.34375 C 53.441406 128.441406 52.28125 130.34375 50.417969 131.308594 C 47.167969 132.988281 45.050781 136.164062 44.746094 139.808594 C 44.445312 143.429688 46.003906 146.890625 48.914062 149.066406 C 58.28125 156.074219 60.125 159.390625 60.484375 160.492188 C 61.128906 162.472656 56.449219 166.707031 52.691406 170.113281 C 48.414062 173.988281 43.707031 178.261719 40.917969 183.21875 C 38.175781 183.445312 36.015625 185.738281 36.015625 188.539062 C 36.015625 191.492188 38.417969 193.886719 41.375 193.886719 C 44.332031 193.886719 46.726562 191.492188 46.726562 188.539062 C 46.726562 187.253906 46.273438 186.074219 45.511719 185.148438 C 47.964844 181.066406 52.183594 177.242188 56.019531 173.769531 Z M 64.386719 22.578125 L 71.847656 22.054688 C 73 21.976562 73.894531 21.015625 73.894531 19.867188 L 73.894531 18.457031 C 73.894531 17.304688 73 16.34375 71.847656 16.265625 L 64.386719 15.746094 C 63.117188 15.65625 62.035156 16.664062 62.035156 17.9375 L 62.035156 20.382812 C 62.035156 21.65625 63.117188 22.664062 64.386719 22.578125 Z M 36.453125 22.054688 L 43.914062 22.578125 C 45.183594 22.664062 46.261719 21.664062 46.265625 20.398438 L 46.296875 20.398438 L 46.296875 17.925781 L 46.265625 17.925781 C 46.257812 16.65625 45.183594 15.65625 43.914062 15.746094 L 36.453125 16.265625 C 35.300781 16.34375 34.40625 17.304688 34.40625 18.457031 L 34.40625 19.867188 C 34.40625 20.316406 34.542969 20.730469 34.78125 21.082031 C 35.148438 21.628906 35.75 22.007812 36.453125 22.054688 Z M 143.800781 56.285156 L 142.394531 55.78125 C 139.457031 54.742188 136.214844 54.859375 133.394531 56.1875 C 129.996094 57.789062 127.15625 59.964844 124.933594 62.066406 C 121.21875 65.574219 120.257812 71.109375 122.441406 75.722656 C 129.71875 65.0625 143.800781 56.285156 143.800781 56.285156 Z M 187.535156 279.714844 C 185.167969 290.109375 184.953125 301.21875 184.953125 301.21875 L 192.113281 343.007812 C 192.113281 343.007812 152.726562 340.835938 97.117188 308.59375 C 97.117188 308.59375 97.535156 305.203125 101.628906 300.4375 C 103.851562 282.648438 104.171875 267.046875 103.902344 255.585938 L 97.117188 265.238281 L 54.148438 242.472656 L 93.78125 170.832031 C 94.308594 169.714844 94.910156 168.632812 95.574219 167.589844 C 100.210938 160.28125 107.984375 154.835938 117.5 153.234375 C 125.105469 151.953125 132.347656 151.269531 137.757812 151.691406 C 161.089844 153.515625 178.960938 155.847656 185.257812 158.878906 C 188.1875 160.289062 191.371094 163.960938 194.289062 168.976562 L 194.289062 168.972656 L 194.332031 169.050781 C 194.867188 169.96875 195.382812 170.933594 195.894531 171.933594 L 225.773438 227.019531 L 197.269531 241.683594 C 193.921875 254.425781 190.109375 268.410156 187.535156 279.714844 "/>
</g>
<path style=" stroke:none;fill-rule:nonzero;fill:rgb(97.648621%,82.348633%,56.858826%);fill-opacity:1;" d="M 154.878906 199.972656 C 153.914062 199.007812 151.652344 198.117188 150.441406 200.796875 L 147.027344 200.238281 L 134.863281 205.683594 C 134.292969 205.921875 133.808594 206.332031 133.480469 206.855469 L 125.414062 219.570312 L 74.277344 252.726562 C 74.164062 252.804688 74.0625 252.890625 73.953125 252.96875 L 66.464844 248.996094 L 63.863281 254.289062 C 59.894531 262.375 62.964844 272.148438 70.847656 276.523438 C 72.5625 277.476562 74.378906 278.085938 76.21875 278.398438 C 81.628906 280.847656 88.238281 279.871094 92.707031 275.398438 L 132.023438 236.039062 L 138.242188 232.957031 C 142.609375 230.789062 145.425781 226.402344 145.570312 221.535156 L 148.039062 223.34375 C 149.363281 224.3125 151.25 223.785156 151.882812 222.277344 C 151.882812 222.277344 155.46875 222.03125 153.0625 217.859375 L 152.390625 216.425781 L 154.34375 217.625 C 155.257812 218.183594 156.414062 217.425781 156.269531 216.367188 L 155.46875 210.578125 C 156.304688 210.492188 157.140625 210.097656 156.96875 208.800781 C 156.640625 206.335938 155.867188 200.960938 154.878906 199.972656 Z M 245.996094 218.96875 C 246.800781 216.828125 246.230469 210.484375 246.230469 210.484375 L 241.96875 216.625 C 241.96875 216.625 224.667969 221.015625 223.058594 222.621094 C 221.453125 224.222656 220.917969 226.539062 220.917969 226.539062 C 220.917969 226.539062 213.242188 229.746094 213.242188 232.058594 C 213.242188 234.378906 214.132812 235.269531 215.5625 235.269531 C 216.992188 235.269531 218.242188 235.269531 218.242188 235.269531 C 218.242188 235.269531 216.8125 238.0625 218.0625 239.25 C 218.867188 240.011719 217.894531 241.175781 218.257812 242.140625 L 195.164062 268.816406 C 190.070312 274.699219 191.535156 283.742188 198.21875 287.726562 C 204.3125 291.359375 212.214844 289.21875 215.628906 283.007812 L 243.226562 232.808594 L 242.976562 232.6875 C 243.550781 232.320312 244.121094 231.925781 244.390625 231.34375 C 245.015625 230.011719 245.191406 226.984375 245.996094 225.914062 C 246.800781 224.84375 245.191406 221.105469 245.996094 218.96875 Z M 190.453125 124.351562 C 189.015625 129.269531 181.175781 145.898438 172.652344 147.125 C 170.367188 147.457031 168.085938 147.355469 165.84375 146.929688 L 166.152344 153.988281 L 171.136719 156.265625 L 156.820312 190.277344 L 131.367188 152.554688 L 137.195312 151.117188 C 138.613281 143.410156 139.082031 135.566406 138.59375 127.757812 C 137.808594 126.859375 137.089844 126.011719 136.445312 125.234375 C 135.429688 124.011719 134.355469 122.488281 133.238281 120.636719 C 129.554688 116.699219 125.546875 109.699219 125.859375 104.738281 C 125.457031 103.667969 125.050781 102.574219 124.640625 101.417969 C 118.460938 84.015625 128.960938 64.945312 147.078125 61.230469 C 163.921875 57.777344 182.480469 64.882812 187.679688 68.742188 C 197.125 75.757812 191.886719 119.4375 190.453125 124.351562 "/>
<g clip-path="url(#clip3)" clip-rule="nonzero">
<path style=" stroke:none;fill-rule:nonzero;fill:rgb(18.818665%,32.159424%,41.569519%);fill-opacity:1;" d="M 217.855469 26.359375 C 214.503906 27.777344 205.820312 30.761719 205.386719 31.753906 C 204.980469 32.683594 209.101562 32.390625 212.859375 32.808594 C 212.816406 32.769531 212.796875 32.742188 212.796875 32.742188 C 212.796875 32.742188 221.890625 28.6875 226.578125 28.164062 C 231.269531 27.640625 235.59375 25.542969 234.628906 23.523438 C 233.828125 21.855469 227.90625 23.242188 224.179688 23.488281 C 222.296875 24.527344 219.679688 25.589844 217.855469 26.359375 Z M 208.957031 45.695312 C 213.367188 45.601562 218.59375 49.144531 221.855469 46.53125 C 225.117188 43.921875 210.449219 40.078125 210.449219 40.078125 C 210.449219 40.078125 232.289062 37.253906 232.523438 33.242188 C 232.695312 30.339844 224.644531 32.457031 219.121094 33.171875 C 217.539062 33.375 216.351562 33.425781 215.453125 33.394531 C 217.4375 34.199219 218.824219 35.664062 218.046875 36.355469 C 217.050781 37.242188 211.003906 37.644531 208.445312 38.328125 C 205.890625 39.007812 196.894531 36.441406 194.902344 35.917969 C 193.316406 35.507812 175.261719 47.117188 167.871094 51.933594 L 193.097656 42.96875 C 193.097656 42.96875 204.542969 45.792969 208.957031 45.695312 Z M 210.882812 13.484375 C 212 12.304688 212.691406 10.730469 212.828125 9.585938 C 211.152344 10.53125 209.371094 11.476562 207.875 12.375 C 203.097656 15.238281 203.1875 16.632812 203.1875 16.632812 C 203.1875 16.632812 206.238281 15.855469 209.621094 14.726562 C 210.054688 14.324219 210.484375 13.910156 210.882812 13.484375 Z M 163.367188 26.964844 C 160.949219 27.1875 159.414062 27.320312 159.414062 27.320312 L 159.601562 28.246094 Z M 211.257812 23.792969 C 210.640625 23.851562 210.265625 23.890625 210.265625 23.890625 C 210.265625 23.890625 217.71875 21.015625 220.082031 19.65625 C 222.445312 18.300781 228.769531 17.382812 228.28125 14.816406 C 228.015625 13.402344 223.332031 14.609375 219.800781 15.589844 C 218.324219 16.488281 216.988281 17.351562 216.324219 18.097656 C 214.3125 20.359375 206.714844 25.136719 206.714844 25.136719 C 206.714844 25.136719 208.851562 24.472656 211.257812 23.792969 Z M 337.300781 179.535156 L 319.378906 221.0625 L 321.832031 222.230469 L 342.933594 182.222656 Z M 315.992188 316.453125 C 315.308594 316.453125 314.753906 317.007812 314.753906 317.6875 L 314.753906 373.589844 C 314.753906 374.273438 315.308594 374.824219 315.992188 374.824219 C 316.671875 374.824219 317.226562 374.273438 317.226562 373.589844 L 317.226562 317.6875 C 317.226562 317.007812 316.671875 316.453125 315.992188 316.453125 Z M 254.097656 316.453125 C 253.410156 316.453125 252.859375 317.007812 252.859375 317.6875 L 252.859375 373.589844 C 252.859375 374.273438 253.410156 374.824219 254.097656 374.824219 C 254.777344 374.824219 255.332031 374.273438 255.332031 373.589844 L 255.332031 317.6875 C 255.332031 317.007812 254.777344 316.453125 254.097656 316.453125 Z M 308.832031 181.824219 L 308.832031 181.003906 L 270.621094 181.003906 L 270.621094 181.824219 Z M 271.75 165.570312 L 269.714844 166.6875 C 270.617188 168.257812 271.703125 169.714844 272.945312 171.027344 L 274.621094 169.425781 L 274.902344 169.722656 L 273.226562 171.324219 C 274.710938 172.839844 276.40625 174.152344 278.257812 175.210938 L 279.375 173.179688 L 280.101562 173.578125 L 278.980469 175.609375 C 280.5625 176.445312 282.257812 177.105469 284.035156 177.554688 L 284.589844 175.296875 L 284.992188 175.390625 L 284.4375 177.648438 C 286.007812 178.015625 287.636719 178.226562 289.316406 178.253906 L 289.316406 175.9375 L 290.140625 175.9375 L 290.140625 178.253906 C 291.992188 178.222656 293.792969 177.976562 295.511719 177.535156 L 294.90625 175.285156 L 295.304688 175.175781 L 295.90625 177.421875 C 297.507812 176.976562 299.035156 176.371094 300.476562 175.609375 L 299.359375 173.578125 L 300.078125 173.179688 L 301.199219 175.210938 C 302.777344 174.308594 304.234375 173.226562 305.550781 171.988281 L 303.941406 170.316406 L 304.238281 170.03125 L 305.847656 171.703125 C 307.367188 170.222656 308.675781 168.535156 309.742188 166.6875 L 307.707031 165.570312 L 308.105469 164.847656 L 310.140625 165.964844 C 310.976562 164.382812 311.636719 162.691406 312.089844 160.917969 L 309.824219 160.363281 L 309.925781 159.964844 L 312.183594 160.515625 C 312.550781 158.949219 312.757812 157.320312 312.789062 155.648438 L 310.46875 155.648438 L 310.46875 154.824219 L 312.789062 154.824219 C 312.757812 152.980469 312.511719 151.183594 312.066406 149.464844 L 309.816406 150.066406 L 309.707031 149.671875 L 311.953125 149.070312 C 311.507812 147.472656 310.902344 145.945312 310.140625 144.511719 L 308.105469 145.625 L 307.707031 144.90625 L 309.742188 143.789062 C 308.835938 142.214844 307.75 140.757812 306.511719 139.445312 L 304.835938 141.050781 L 304.550781 140.753906 L 306.226562 139.152344 C 304.746094 137.632812 303.054688 136.324219 301.199219 135.265625 L 300.078125 137.292969 L 299.359375 136.898438 L 300.476562 134.863281 C 298.890625 134.03125 297.195312 133.371094 295.417969 132.921875 L 294.863281 135.179688 L 294.460938 135.082031 L 295.015625 132.828125 C 293.445312 132.457031 291.816406 132.25 290.140625 132.222656 L 290.140625 134.535156 L 289.316406 134.535156 L 289.316406 132.222656 C 287.464844 132.253906 285.664062 132.5 283.941406 132.941406 L 284.546875 135.191406 L 284.148438 135.300781 L 283.546875 133.054688 C 281.949219 133.496094 280.417969 134.105469 278.980469 134.863281 L 280.101562 136.898438 L 279.375 137.292969 L 278.257812 135.265625 C 276.152344 136.464844 274.257812 137.992188 272.636719 139.769531 L 274.375 141.316406 L 274.101562 141.625 L 272.367188 140.082031 C 271.367188 141.222656 270.472656 142.464844 269.714844 143.789062 L 271.75 144.90625 L 271.351562 145.625 L 269.3125 144.511719 C 268.476562 146.09375 267.816406 147.785156 267.363281 149.558594 L 269.628906 150.113281 L 269.53125 150.511719 L 267.273438 149.960938 C 266.90625 151.527344 266.695312 153.152344 266.667969 154.824219 L 268.984375 154.824219 L 268.984375 155.648438 L 266.667969 155.648438 C 266.699219 157.496094 266.941406 159.292969 267.386719 161.011719 L 269.640625 160.40625 L 269.75 160.804688 L 267.5 161.40625 C 267.945312 163 268.554688 164.527344 269.3125 165.964844 L 271.351562 164.847656 Z M 265.066406 181.414062 C 265.066406 180.550781 264.363281 179.851562 263.5 179.851562 C 262.632812 179.851562 261.933594 180.550781 261.933594 181.414062 C 261.933594 182.277344 262.632812 182.976562 263.5 182.976562 C 264.363281 182.976562 265.066406 182.277344 265.066406 181.414062 Z M 263.085938 136.171875 L 263.085938 174.304688 L 263.910156 174.304688 L 263.910156 136.171875 Z M 261.863281 128.992188 C 261.863281 129.851562 262.5625 130.554688 263.429688 130.554688 C 264.292969 130.554688 264.996094 129.851562 264.996094 128.992188 C 264.996094 128.125 264.292969 127.425781 263.429688 127.425781 C 262.5625 127.425781 261.863281 128.125 261.863281 128.992188 Z M 270.621094 129.402344 L 308.832031 129.402344 L 308.832031 128.578125 L 270.621094 128.578125 Z M 314.425781 181.449219 C 314.425781 182.3125 315.128906 183.011719 315.992188 183.011719 C 316.855469 183.011719 317.554688 182.3125 317.554688 181.449219 C 317.554688 180.589844 316.855469 179.886719 315.992188 179.886719 C 315.128906 179.886719 314.425781 180.589844 314.425781 181.449219 Z M 315.613281 136.171875 L 315.613281 174.304688 L 316.4375 174.304688 L 316.4375 136.171875 Z M 314.460938 128.992188 C 314.460938 129.851562 315.164062 130.554688 316.027344 130.554688 C 316.890625 130.554688 317.589844 129.851562 317.589844 128.992188 C 317.589844 128.125 316.890625 127.425781 316.027344 127.425781 C 315.164062 127.425781 314.460938 128.125 314.460938 128.992188 Z M 306.332031 194.375 L 297.945312 195.121094 L 306.742188 199.175781 C 307.25 199.410156 307.539062 199.957031 307.441406 200.507812 C 307.347656 201.058594 306.890625 201.476562 306.332031 201.527344 L 297.945312 202.269531 L 306.742188 206.324219 C 307.25 206.558594 307.539062 207.105469 307.441406 207.660156 C 307.347656 208.210938 306.890625 208.628906 306.332031 208.675781 L 297.945312 209.421875 L 306.742188 213.476562 C 307.25 213.710938 307.539062 214.257812 307.441406 214.808594 C 307.347656 215.359375 306.890625 215.777344 306.332031 215.828125 L 297.945312 216.570312 L 306.742188 220.628906 C 307.25 220.863281 307.539062 221.40625 307.441406 221.960938 C 307.347656 222.511719 306.890625 222.929688 306.332031 222.980469 L 297.945312 223.722656 L 306.742188 227.78125 C 307.25 228.015625 307.539062 228.5625 307.441406 229.109375 C 307.347656 229.660156 306.890625 230.078125 306.332031 230.128906 L 297.945312 230.871094 L 306.742188 234.929688 C 307.25 235.164062 307.539062 235.710938 307.441406 236.261719 C 307.347656 236.816406 306.890625 237.234375 306.332031 237.28125 L 297.945312 238.027344 L 306.742188 242.082031 C 307.25 242.316406 307.539062 242.863281 307.441406 243.410156 C 307.347656 243.964844 306.890625 244.378906 306.332031 244.429688 L 297.945312 245.175781 L 306.742188 249.230469 C 307.25 249.464844 307.539062 250.011719 307.441406 250.5625 C 307.347656 251.117188 306.890625 251.535156 306.332031 251.582031 L 297.945312 252.328125 L 301.722656 254.070312 C 302.171875 254.277344 302.4375 254.722656 302.4375 255.1875 L 302.441406 255.1875 L 302.441406 317.6875 L 299.964844 317.6875 L 299.964844 255.980469 L 292.695312 252.628906 C 292.1875 252.394531 291.898438 251.847656 291.992188 251.296875 C 292.089844 250.746094 292.542969 250.328125 293.101562 250.277344 L 301.492188 249.535156 L 292.695312 245.476562 C 292.585938 245.429688 292.492188 245.359375 292.40625 245.285156 C 292.394531 245.273438 292.375 245.261719 292.359375 245.246094 C 292.265625 245.15625 292.1875 245.046875 292.125 244.9375 C 292.117188 244.917969 292.105469 244.898438 292.101562 244.882812 C 292.042969 244.757812 292.003906 244.625 291.988281 244.488281 C 291.988281 244.480469 291.980469 244.472656 291.980469 244.464844 C 291.980469 244.445312 291.984375 244.421875 291.980469 244.398438 C 291.980469 244.355469 291.980469 244.308594 291.984375 244.265625 C 291.988281 244.226562 291.992188 244.1875 292 244.144531 C 292.007812 244.105469 292.011719 244.066406 292.023438 244.027344 C 292.035156 243.988281 292.050781 243.945312 292.066406 243.902344 C 292.078125 243.882812 292.082031 243.859375 292.089844 243.839844 C 292.097656 243.828125 292.101562 243.816406 292.113281 243.804688 C 292.132812 243.761719 292.15625 243.722656 292.179688 243.6875 C 292.199219 243.65625 292.21875 243.625 292.242188 243.59375 C 292.265625 243.5625 292.296875 243.535156 292.324219 243.503906 C 292.351562 243.476562 292.375 243.449219 292.410156 243.421875 C 292.4375 243.394531 292.472656 243.375 292.503906 243.351562 C 292.539062 243.328125 292.566406 243.304688 292.601562 243.285156 C 292.636719 243.265625 292.671875 243.246094 292.710938 243.230469 C 292.746094 243.214844 292.78125 243.199219 292.820312 243.191406 C 292.855469 243.175781 292.894531 243.167969 292.929688 243.15625 C 292.976562 243.148438 293.019531 243.140625 293.0625 243.136719 C 293.074219 243.132812 293.089844 243.128906 293.101562 243.125 L 301.492188 242.382812 L 292.695312 238.324219 C 292.585938 238.277344 292.492188 238.210938 292.40625 238.136719 C 292.394531 238.125 292.375 238.109375 292.359375 238.09375 C 292.265625 238.003906 292.1875 237.898438 292.125 237.785156 C 292.117188 237.765625 292.105469 237.75 292.101562 237.730469 C 292.042969 237.605469 292.003906 237.476562 291.988281 237.339844 C 291.988281 237.332031 291.980469 237.324219 291.980469 237.316406 C 291.980469 237.292969 291.984375 237.269531 291.980469 237.246094 C 291.980469 237.203125 291.980469 237.160156 291.984375 237.113281 C 291.988281 237.070312 291.992188 237.03125 292 236.996094 C 292.007812 236.957031 292.011719 236.917969 292.023438 236.878906 C 292.035156 236.835938 292.050781 236.796875 292.066406 236.753906 C 292.078125 236.730469 292.082031 236.707031 292.089844 236.6875 C 292.097656 236.675781 292.101562 236.664062 292.113281 236.652344 C 292.132812 236.613281 292.15625 236.578125 292.179688 236.539062 C 292.199219 236.503906 292.21875 236.472656 292.242188 236.445312 C 292.265625 236.414062 292.296875 236.382812 292.324219 236.355469 C 292.351562 236.324219 292.375 236.296875 292.410156 236.269531 C 292.4375 236.246094 292.46875 236.222656 292.503906 236.199219 C 292.535156 236.179688 292.566406 236.15625 292.601562 236.136719 C 292.636719 236.117188 292.671875 236.101562 292.710938 236.082031 C 292.746094 236.070312 292.78125 236.050781 292.820312 236.035156 C 292.855469 236.027344 292.890625 236.015625 292.929688 236.007812 C 292.976562 235.996094 293.019531 235.992188 293.0625 235.984375 C 293.074219 235.980469 293.089844 235.980469 293.101562 235.976562 L 301.492188 235.230469 L 292.695312 231.175781 C 292.585938 231.125 292.492188 231.058594 292.40625 230.984375 C 292.394531 230.96875 292.375 230.960938 292.359375 230.945312 C 292.265625 230.855469 292.1875 230.746094 292.125 230.636719 C 292.117188 230.617188 292.105469 230.597656 292.101562 230.578125 C 292.042969 230.453125 292.003906 230.324219 291.988281 230.1875 C 291.988281 230.179688 291.980469 230.171875 291.980469 230.164062 C 291.980469 230.140625 291.984375 230.117188 291.980469 230.09375 C 291.980469 230.050781 291.980469 230.007812 291.984375 229.964844 C 291.988281 229.921875 291.992188 229.882812 292 229.84375 C 292.007812 229.804688 292.011719 229.765625 292.023438 229.726562 C 292.035156 229.683594 292.050781 229.644531 292.066406 229.601562 C 292.078125 229.582031 292.082031 229.558594 292.089844 229.539062 C 292.097656 229.527344 292.101562 229.511719 292.113281 229.5 C 292.132812 229.460938 292.15625 229.421875 292.179688 229.386719 C 292.199219 229.355469 292.21875 229.324219 292.242188 229.292969 C 292.265625 229.261719 292.296875 229.234375 292.324219 229.203125 C 292.351562 229.175781 292.375 229.144531 292.410156 229.121094 C 292.4375 229.09375 292.472656 229.074219 292.503906 229.050781 C 292.539062 229.027344 292.566406 229.003906 292.601562 228.984375 C 292.636719 228.964844 292.671875 228.945312 292.710938 228.929688 C 292.746094 228.914062 292.78125 228.898438 292.820312 228.890625 C 292.855469 228.875 292.894531 228.867188 292.929688 228.855469 C 292.976562 228.847656 293.019531 228.835938 293.0625 228.835938 C 293.074219 228.832031 293.089844 228.828125 293.101562 228.824219 L 301.492188 228.078125 L 292.695312 224.023438 C 292.585938 223.976562 292.492188 223.910156 292.40625 223.835938 C 292.394531 223.820312 292.375 223.804688 292.359375 223.792969 C 292.265625 223.699219 292.1875 223.597656 292.125 223.484375 C 292.117188 223.464844 292.105469 223.445312 292.101562 223.425781 C 292.042969 223.304688 292.003906 223.171875 291.988281 223.039062 C 291.988281 223.027344 291.980469 223.023438 291.980469 223.011719 C 291.980469 222.988281 291.984375 222.96875 291.980469 222.945312 C 291.980469 222.898438 291.980469 222.859375 291.984375 222.8125 C 291.988281 222.769531 291.992188 222.730469 292 222.695312 C 292.007812 222.65625 292.011719 222.617188 292.023438 222.578125 C 292.035156 222.53125 292.050781 222.492188 292.066406 222.449219 C 292.078125 222.429688 292.082031 222.40625 292.089844 222.386719 C 292.097656 222.375 292.101562 222.363281 292.113281 222.347656 C 292.132812 222.3125 292.15625 222.273438 292.179688 222.238281 C 292.199219 222.203125 292.21875 222.171875 292.242188 222.144531 C 292.265625 222.113281 292.296875 222.082031 292.324219 222.054688 C 292.351562 222.023438 292.375 221.996094 292.410156 221.96875 C 292.4375 221.945312 292.46875 221.921875 292.503906 221.898438 C 292.539062 221.875 292.566406 221.851562 292.601562 221.835938 C 292.636719 221.8125 292.671875 221.796875 292.710938 221.78125 C 292.746094 221.765625 292.78125 221.75 292.820312 221.734375 C 292.855469 221.726562 292.894531 221.714844 292.929688 221.707031 C 292.976562 221.695312 293.019531 221.6875 293.0625 221.679688 C 293.074219 221.679688 293.089844 221.675781 293.101562 221.675781 L 301.492188 220.929688 L 292.695312 216.875 C 292.585938 216.824219 292.492188 216.757812 292.40625 216.683594 C 292.394531 216.667969 292.375 216.65625 292.359375 216.644531 C 292.265625 216.550781 292.1875 216.445312 292.125 216.335938 C 292.117188 216.316406 292.105469 216.296875 292.101562 216.277344 C 292.042969 216.152344 292.003906 216.023438 291.988281 215.886719 C 291.988281 215.878906 291.980469 215.871094 291.980469 215.863281 C 291.980469 215.839844 291.984375 215.816406 291.980469 215.792969 C 291.980469 215.75 291.980469 215.707031 291.984375 215.660156 C 291.988281 215.621094 291.992188 215.582031 292 215.542969 C 292.007812 215.503906 292.011719 215.464844 292.023438 215.425781 C 292.035156 215.382812 292.050781 215.339844 292.066406 215.296875 C 292.078125 215.28125 292.082031 215.257812 292.089844 215.234375 C 292.097656 215.226562 292.101562 215.210938 292.113281 215.199219 C 292.132812 215.160156 292.15625 215.121094 292.179688 215.085938 C 292.199219 215.054688 292.21875 215.023438 292.242188 214.992188 C 292.265625 214.960938 292.296875 214.933594 292.324219 214.902344 C 292.351562 214.875 292.375 214.84375 292.410156 214.820312 C 292.4375 214.792969 292.472656 214.769531 292.503906 214.746094 C 292.539062 214.726562 292.566406 214.703125 292.601562 214.683594 C 292.636719 214.664062 292.671875 214.644531 292.710938 214.628906 C 292.746094 214.613281 292.78125 214.597656 292.820312 214.585938 C 292.855469 214.574219 292.894531 214.566406 292.929688 214.554688 C 292.976562 214.546875 293.019531 214.535156 293.0625 214.53125 C 293.074219 214.53125 293.089844 214.523438 293.101562 214.523438 L 301.492188 213.777344 L 292.695312 209.722656 C 292.585938 209.671875 292.492188 209.609375 292.40625 209.535156 C 292.394531 209.519531 292.375 209.503906 292.359375 209.492188 C 292.265625 209.398438 292.1875 209.296875 292.125 209.183594 C 292.117188 209.164062 292.105469 209.144531 292.101562 209.125 C 292.042969 209.003906 292.003906 208.871094 291.988281 208.738281 C 291.988281 208.726562 291.980469 208.71875 291.980469 208.710938 C 291.980469 208.6875 291.984375 208.664062 291.980469 208.644531 C 291.980469 208.597656 291.980469 208.554688 291.984375 208.507812 C 291.988281 208.46875 291.992188 208.429688 292 208.394531 C 292.007812 208.355469 292.011719 208.316406 292.023438 208.277344 C 292.035156 208.230469 292.050781 208.191406 292.066406 208.148438 C 292.078125 208.128906 292.082031 208.105469 292.089844 208.082031 C 292.097656 208.074219 292.101562 208.0625 292.113281 208.046875 C 292.132812 208.011719 292.15625 207.972656 292.179688 207.9375 C 292.199219 207.902344 292.21875 207.871094 292.242188 207.84375 C 292.265625 207.8125 292.296875 207.78125 292.324219 207.753906 C 292.351562 207.722656 292.375 207.695312 292.410156 207.667969 C 292.4375 207.644531 292.472656 207.617188 292.503906 207.59375 C 292.539062 207.574219 292.566406 207.550781 292.601562 207.535156 C 292.636719 207.511719 292.671875 207.496094 292.710938 207.480469 C 292.746094 207.464844 292.78125 207.449219 292.820312 207.433594 C 292.855469 207.425781 292.894531 207.414062 292.929688 207.40625 C 292.976562 207.394531 293.019531 207.386719 293.0625 207.378906 C 293.074219 207.378906 293.089844 207.375 293.101562 207.375 L 301.492188 206.628906 L 292.695312 202.574219 C 292.585938 202.523438 292.492188 202.457031 292.40625 202.382812 C 292.394531 202.367188 292.375 202.355469 292.359375 202.339844 C 292.265625 202.25 292.1875 202.144531 292.125 202.03125 C 292.117188 202.015625 292.105469 201.996094 292.101562 201.976562 C 292.042969 201.851562 292.003906 201.722656 291.988281 201.585938 C 291.988281 201.578125 291.980469 201.570312 291.980469 201.558594 C 291.980469 201.539062 291.984375 201.515625 291.980469 201.492188 C 291.980469 201.449219 291.980469 201.40625 291.984375 201.359375 C 291.988281 201.320312 291.992188 201.28125 292 201.242188 C 292.007812 201.203125 292.011719 201.164062 292.023438 201.125 C 292.035156 201.082031 292.050781 201.039062 292.066406 200.996094 C 292.078125 200.976562 292.082031 200.957031 292.089844 200.933594 C 292.097656 200.921875 292.101562 200.910156 292.113281 200.898438 C 292.132812 200.859375 292.15625 200.820312 292.179688 200.78125 C 292.199219 200.753906 292.21875 200.722656 292.242188 200.691406 C 292.265625 200.660156 292.296875 200.632812 292.324219 200.601562 C 292.351562 200.574219 292.375 200.542969 292.410156 200.519531 C 292.4375 200.492188 292.46875 200.46875 292.503906 200.445312 C 292.539062 200.425781 292.566406 200.398438 292.601562 200.378906 C 292.636719 200.359375 292.671875 200.34375 292.710938 200.328125 C 292.746094 200.3125 292.78125 200.296875 292.820312 200.285156 C 292.855469 200.269531 292.890625 200.265625 292.929688 200.253906 C 292.976562 200.246094 293.019531 200.234375 293.0625 200.230469 C 293.074219 200.230469 293.089844 200.222656 293.101562 200.222656 L 301.492188 199.476562 L 292.695312 195.421875 C 292.585938 195.371094 292.492188 195.304688 292.40625 195.230469 C 292.394531 195.21875 292.375 195.203125 292.359375 195.191406 C 292.265625 195.097656 292.1875 194.996094 292.125 194.878906 C 292.117188 194.863281 292.105469 194.84375 292.101562 194.824219 C 292.042969 194.703125 292.003906 194.570312 291.988281 194.4375 C 291.988281 194.425781 291.980469 194.417969 291.980469 194.410156 C 291.980469 194.386719 291.984375 194.363281 291.980469 194.34375 C 291.980469 194.296875 291.980469 194.253906 291.984375 194.207031 C 291.988281 194.167969 291.992188 194.128906 292 194.089844 C 292.007812 194.054688 292.011719 194.015625 292.023438 193.976562 C 292.035156 193.929688 292.050781 193.890625 292.066406 193.847656 C 292.078125 193.824219 292.082031 193.804688 292.089844 193.78125 C 292.097656 193.769531 292.101562 193.761719 292.113281 193.746094 C 292.132812 193.710938 292.15625 193.671875 292.179688 193.632812 C 292.199219 193.601562 292.21875 193.570312 292.242188 193.542969 C 292.265625 193.507812 292.296875 193.476562 292.324219 193.449219 C 292.351562 193.417969 292.375 193.394531 292.410156 193.367188 C 292.4375 193.339844 292.472656 193.316406 292.503906 193.292969 C 292.539062 193.273438 292.566406 193.25 292.601562 193.230469 C 292.636719 193.210938 292.675781 193.195312 292.710938 193.179688 C 292.746094 193.164062 292.78125 193.144531 292.820312 193.132812 C 292.855469 193.121094 292.890625 193.113281 292.929688 193.105469 C 292.976562 193.09375 293.019531 193.085938 293.0625 193.078125 C 293.074219 193.078125 293.089844 193.074219 293.101562 193.074219 L 301.492188 192.328125 L 292.695312 188.273438 C 292.179688 188.035156 291.910156 187.488281 291.996094 186.953125 L 279.402344 186.953125 L 279.402344 274.558594 C 279.039062 274.347656 278.621094 274.214844 278.167969 274.214844 C 277.714844 274.214844 277.292969 274.347656 276.929688 274.558594 L 276.929688 186.953125 L 264.074219 186.953125 C 260.691406 186.953125 257.949219 184.21875 257.949219 180.84375 L 257.949219 129.632812 C 257.949219 126.257812 260.691406 123.523438 264.074219 123.523438 L 315.382812 123.523438 C 318.765625 123.523438 321.503906 126.257812 321.503906 129.632812 L 321.503906 180.84375 C 321.503906 184.21875 318.765625 186.953125 315.382812 186.953125 L 295.734375 186.953125 L 306.742188 192.023438 C 307.25 192.257812 307.539062 192.804688 307.441406 193.355469 C 307.347656 193.910156 306.890625 194.328125 306.332031 194.375 Z M 288.976562 156.636719 L 288.882812 161.417969 C 288.882812 161.429688 288.882812 161.441406 288.882812 161.453125 C 288.890625 161.917969 289.277344 162.289062 289.746094 162.277344 C 290.207031 162.269531 290.582031 161.886719 290.574219 161.417969 L 290.480469 156.636719 C 290.980469 156.363281 291.328125 155.84375 291.328125 155.238281 C 291.328125 154.609375 290.957031 154.070312 290.429688 153.808594 L 290.140625 138.917969 C 290.132812 138.703125 289.957031 138.519531 289.734375 138.515625 C 289.507812 138.511719 289.320312 138.695312 289.316406 138.917969 L 289.03125 153.808594 C 288.5 154.070312 288.132812 154.609375 288.132812 155.238281 C 288.132812 155.84375 288.476562 156.363281 288.976562 156.636719 Z M 81.21875 22.390625 L 73.894531 18.480469 L 73.894531 19.867188 C 73.894531 20.316406 73.757812 20.730469 73.519531 21.082031 L 80.054688 24.570312 C 81.722656 25.457031 82.65625 27.246094 82.441406 29.105469 L 76.410156 77.804688 C 75.921875 81.746094 74.21875 85.359375 71.671875 88.234375 C 72.128906 88.347656 72.5625 88.59375 72.902344 88.964844 C 73.171875 89.257812 73.34375 89.597656 73.445312 89.957031 C 76.359375 86.699219 78.308594 82.59375 78.867188 78.105469 L 84.898438 29.402344 C 85.234375 26.515625 83.792969 23.761719 81.21875 22.390625 Z M 62.035156 20.382812 L 62.035156 17.9375 C 62.035156 17.933594 62.035156 17.929688 62.035156 17.925781 L 62.003906 17.925781 L 62.003906 20.398438 L 62.035156 20.398438 C 62.035156 20.390625 62.035156 20.386719 62.035156 20.382812 Z M 35.625 89.222656 C 35.957031 88.84375 36.382812 88.59375 36.839844 88.472656 C 34.171875 85.5625 32.390625 81.855469 31.890625 77.804688 L 25.859375 29.117188 C 25.644531 27.246094 26.578125 25.457031 28.246094 24.570312 L 34.78125 21.082031 C 34.542969 20.730469 34.40625 20.316406 34.40625 19.867188 L 34.40625 18.480469 L 27.078125 22.390625 C 24.507812 23.761719 23.066406 26.515625 23.402344 29.410156 L 29.433594 78.105469 C 30.003906 82.714844 32.042969 86.925781 35.09375 90.226562 C 35.191406 89.867188 35.359375 89.519531 35.625 89.222656 Z M 45.511719 185.148438 C 46.273438 186.074219 46.726562 187.253906 46.726562 188.539062 C 46.726562 191.492188 44.332031 193.886719 41.375 193.886719 C 38.417969 193.886719 36.015625 191.492188 36.015625 188.539062 C 36.015625 185.738281 38.175781 183.445312 40.917969 183.21875 C 41.90625 181.460938 43.140625 179.796875 44.503906 178.203125 C 43.511719 177.902344 42.460938 177.738281 41.375 177.738281 C 35.394531 177.738281 30.550781 182.574219 30.550781 188.539062 C 30.550781 194.503906 35.394531 199.339844 41.375 199.339844 C 47.351562 199.339844 52.195312 194.503906 52.195312 188.539062 C 52.195312 185.46875 50.90625 182.707031 48.84375 180.738281 C 47.566406 182.167969 46.417969 183.640625 45.511719 185.148438 Z M 237.09375 230.957031 C 235.511719 231.175781 233.941406 231.453125 232.375 231.734375 C 230.808594 232.015625 229.25 232.339844 227.6875 232.640625 C 226.128906 232.980469 224.570312 233.296875 223.019531 233.65625 C 221.464844 234.015625 219.914062 234.378906 218.375 234.796875 C 218.300781 234.816406 218.25 234.886719 218.261719 234.96875 C 218.273438 235.054688 218.351562 235.113281 218.441406 235.105469 C 220.019531 234.886719 221.585938 234.617188 223.15625 234.335938 C 224.726562 234.058594 226.285156 233.742188 227.851562 233.445312 C 229.40625 233.113281 230.96875 232.796875 232.519531 232.449219 C 234.074219 232.09375 235.628906 231.734375 237.167969 231.320312 C 237.257812 231.296875 237.316406 231.207031 237.300781 231.113281 C 237.289062 231.011719 237.191406 230.941406 237.09375 230.957031 Z M 238.605469 224.632812 C 237.078125 224.949219 235.570312 225.3125 234.066406 225.671875 C 232.558594 226.03125 231.0625 226.414062 229.550781 226.75 C 228.054688 227.121094 226.53125 227.464844 225.042969 227.761719 C 224.304688 227.890625 223.554688 227.945312 222.855469 227.78125 C 222.15625 227.628906 221.488281 227.246094 221.089844 226.640625 C 221.046875 226.578125 220.960938 226.546875 220.886719 226.582031 C 220.808594 226.621094 220.777344 226.714844 220.8125 226.792969 C 221.171875 227.558594 221.925781 228.0625 222.707031 228.3125 C 223.515625 228.5625 224.351562 228.539062 225.140625 228.449219 C 226.714844 228.226562 228.214844 227.878906 229.738281 227.550781 C 231.253906 227.183594 232.761719 226.800781 234.25 226.375 C 235.746094 225.945312 237.230469 225.492188 238.699219 224.992188 C 238.789062 224.964844 238.84375 224.871094 238.824219 224.777344 C 238.804688 224.675781 238.703125 224.613281 238.605469 224.632812 Z M 180.878906 198.015625 L 160.734375 232.238281 L 160.863281 228.53125 L 156.265625 216.496094 C 156.304688 217.484375 155.21875 218.160156 154.34375 217.625 L 152.722656 216.628906 C 152.449219 215.976562 152.191406 215.324219 151.90625 214.679688 C 151.453125 213.648438 151.019531 212.609375 150.546875 211.589844 C 149.621094 209.542969 148.679688 207.503906 147.699219 205.480469 L 147.695312 205.476562 C 147.625 205.324219 147.460938 205.234375 147.285156 205.261719 C 146.128906 205.441406 144.984375 205.65625 143.832031 205.863281 C 142.679688 206.066406 141.535156 206.296875 140.386719 206.539062 C 140.292969 206.558594 140.230469 206.644531 140.238281 206.738281 C 140.25 206.839844 140.339844 206.914062 140.445312 206.902344 C 141.609375 206.785156 142.773438 206.660156 143.929688 206.503906 C 144.992188 206.363281 146.054688 206.230469 147.113281 206.070312 C 148.003906 208.03125 148.921875 209.972656 149.863281 211.914062 C 150.339844 212.929688 150.863281 213.925781 151.363281 214.933594 C 151.863281 215.9375 152.386719 216.933594 152.921875 217.925781 C 152.957031 217.996094 153.042969 218.027344 153.117188 217.996094 C 153.125 217.996094 153.125 217.988281 153.128906 217.988281 C 154.398438 220.265625 153.847656 221.339844 153.113281 221.839844 L 156.328125 230.253906 L 159.667969 233.742188 C 159.707031 233.785156 159.746094 233.816406 159.792969 233.839844 L 140.253906 267.03125 L 207.003906 267.03125 L 223.359375 243.472656 C 223.359375 243.546875 223.40625 243.613281 223.480469 243.628906 C 224.390625 243.777344 225.316406 243.824219 226.234375 243.8125 C 227.15625 243.804688 228.078125 243.707031 228.992188 243.558594 C 229.902344 243.398438 230.804688 243.1875 231.675781 242.890625 C 232.554688 242.597656 233.410156 242.25 234.214844 241.8125 C 234.292969 241.769531 234.332031 241.679688 234.304688 241.59375 C 234.277344 241.492188 234.171875 241.433594 234.074219 241.46875 C 233.203125 241.722656 232.34375 241.976562 231.472656 242.191406 C 230.605469 242.402344 229.730469 242.597656 228.851562 242.746094 C 227.972656 242.90625 227.085938 243.019531 226.195312 243.117188 C 225.300781 243.210938 224.40625 243.265625 223.5 243.316406 C 223.457031 243.316406 223.425781 243.339844 223.394531 243.371094 C 222.25 243.554688 221.265625 243.609375 220.558594 243.460938 C 216.828125 242.683594 218.648438 240.964844 218.351562 239.746094 C 219.699219 240.359375 221.175781 240.667969 222.652344 240.757812 C 224.171875 240.847656 225.691406 240.683594 227.175781 240.394531 C 228.652344 240.070312 230.09375 239.621094 231.488281 239.074219 C 232.882812 238.523438 234.238281 237.90625 235.570312 237.238281 C 235.648438 237.195312 235.691406 237.101562 235.664062 237.011719 C 235.628906 236.914062 235.519531 236.859375 235.425781 236.894531 C 234.015625 237.378906 232.632812 237.917969 231.234375 238.390625 C 229.839844 238.867188 228.441406 239.304688 227.007812 239.59375 C 225.585938 239.914062 224.128906 240.066406 222.675781 240.0625 C 221.222656 240.054688 219.765625 239.847656 218.367188 239.414062 C 218.316406 239.398438 218.265625 239.417969 218.222656 239.449219 C 218.179688 239.378906 218.132812 239.3125 218.0625 239.25 C 216.8125 238.0625 218.242188 235.269531 218.242188 235.269531 C 218.242188 235.269531 216.992188 235.269531 215.5625 235.269531 C 214.132812 235.269531 213.242188 234.378906 213.242188 232.058594 C 213.242188 229.746094 220.917969 226.539062 220.917969 226.539062 C 220.917969 226.539062 221.453125 224.222656 223.058594 222.621094 C 224.667969 221.015625 241.96875 216.625 241.96875 216.625 L 246.230469 210.484375 C 246.230469 210.484375 246.230469 210.511719 246.230469 210.527344 L 254.917969 198.015625 Z M 193.265625 185.554688 C 192.636719 184.222656 191.996094 182.890625 191.308594 181.582031 C 191.273438 181.515625 191.191406 181.480469 191.117188 181.507812 C 191.03125 181.535156 190.988281 181.625 191.019531 181.707031 C 191.519531 183.097656 192.074219 184.46875 192.628906 185.835938 C 193.1875 187.203125 193.78125 188.546875 194.355469 189.910156 C 194.964844 191.253906 195.558594 192.601562 196.183594 193.941406 C 196.8125 195.273438 197.445312 196.605469 198.132812 197.917969 C 198.175781 198 198.269531 198.039062 198.359375 198.007812 C 198.457031 197.972656 198.507812 197.867188 198.472656 197.765625 C 197.96875 196.378906 197.414062 195.011719 196.851562 193.648438 C 196.289062 192.28125 195.691406 190.933594 195.109375 189.578125 C 194.496094 188.238281 193.898438 186.886719 193.265625 185.554688 Z M 142.757812 169.355469 C 142.734375 169.441406 142.785156 169.527344 142.871094 169.546875 C 144.4375 169.949219 146.03125 170.230469 147.277344 171.066406 C 147.90625 171.464844 148.398438 172.046875 148.960938 172.636719 C 149.511719 173.21875 150.152344 173.851562 150.980469 174.136719 C 151.054688 174.164062 151.148438 174.136719 151.199219 174.0625 C 151.253906 173.972656 151.226562 173.859375 151.140625 173.800781 L 151.136719 173.796875 C 150.492188 173.382812 150.007812 172.789062 149.515625 172.160156 C 149.027344 171.535156 148.476562 170.859375 147.730469 170.382812 C 146.996094 169.910156 146.179688 169.621094 145.359375 169.46875 C 144.542969 169.304688 143.726562 169.242188 142.914062 169.234375 C 142.839844 169.234375 142.777344 169.285156 142.757812 169.355469 Z M 163.265625 169.855469 C 162.78125 169.996094 162.335938 170.253906 161.949219 170.574219 C 161.183594 171.222656 160.648438 172.195312 160.679688 173.1875 C 160.679688 173.246094 160.71875 173.304688 160.777344 173.332031 C 160.859375 173.367188 160.953125 173.324219 160.988281 173.246094 L 160.988281 173.242188 C 161.160156 172.828125 161.363281 172.449219 161.613281 172.113281 C 161.871094 171.777344 162.152344 171.464844 162.476562 171.210938 C 162.796875 170.9375 163.152344 170.722656 163.527344 170.539062 C 163.902344 170.355469 164.308594 170.230469 164.746094 170.136719 C 164.820312 170.121094 164.878906 170.066406 164.894531 169.992188 C 164.917969 169.886719 164.851562 169.785156 164.746094 169.765625 C 164.261719 169.660156 163.75 169.710938 163.265625 169.855469 Z M 130.003906 109.035156 C 130.320312 109.007812 130.738281 109.222656 131.140625 109.460938 C 131.941406 109.933594 132.679688 110.550781 133.246094 111.242188 L 133.261719 111.261719 C 133.359375 111.382812 133.53125 111.441406 133.695312 111.386719 C 133.90625 111.320312 134.027344 111.097656 133.960938 110.882812 C 133.417969 109.164062 132.589844 107.527344 131.464844 106.121094 C 130.894531 105.421875 130.308594 104.761719 129.589844 104.179688 C 128.890625 103.613281 127.84375 103.199219 126.925781 103.628906 C 126.855469 103.664062 126.816406 103.75 126.84375 103.824219 C 126.871094 103.90625 126.960938 103.953125 127.042969 103.921875 L 127.050781 103.921875 C 127.824219 103.664062 128.652344 104.03125 129.242188 104.59375 C 129.859375 105.164062 130.421875 105.84375 130.921875 106.535156 C 131.574219 107.453125 132.132812 108.441406 132.582031 109.476562 C 132.246094 109.222656 131.902344 108.988281 131.539062 108.773438 C 131.105469 108.539062 130.625 108.226562 129.9375 108.261719 C 129.601562 108.269531 129.167969 108.53125 129.046875 108.914062 C 128.917969 109.289062 129 109.597656 129.054688 109.851562 C 129.554688 111.792969 130.410156 113.628906 131.605469 115.214844 C 131.664062 115.292969 131.769531 115.3125 131.851562 115.261719 C 131.941406 115.210938 131.96875 115.09375 131.914062 115.007812 C 130.917969 113.351562 130.179688 111.550781 129.777344 109.6875 C 129.734375 109.472656 129.726562 109.273438 129.765625 109.179688 C 129.808594 109.089844 129.859375 109.046875 130.003906 109.035156 Z M 138.136719 109.773438 C 137.929688 109.148438 137.738281 108.515625 137.59375 107.871094 C 137.4375 107.230469 137.328125 106.582031 137.230469 105.925781 C 137.136719 105.269531 137.085938 104.605469 137.03125 103.929688 C 137.027344 103.863281 136.976562 103.800781 136.90625 103.785156 C 136.820312 103.769531 136.738281 103.820312 136.71875 103.90625 C 136.566406 104.585938 136.519531 105.28125 136.535156 105.980469 C 136.542969 106.679688 136.640625 107.371094 136.789062 108.058594 C 136.949219 108.734375 137.160156 109.40625 137.453125 110.042969 C 137.742188 110.679688 138.085938 111.289062 138.519531 111.835938 C 138.570312 111.898438 138.65625 111.925781 138.738281 111.894531 C 138.832031 111.855469 138.878906 111.746094 138.839844 111.648438 C 138.589844 111.023438 138.339844 110.40625 138.136719 109.773438 Z M 189.003906 101.761719 C 189.070312 101.816406 189.167969 101.828125 189.238281 101.773438 C 189.320312 101.710938 189.339844 101.59375 189.28125 101.511719 C 188.773438 100.820312 188.160156 100.214844 187.484375 99.679688 C 186.8125 99.140625 186.070312 98.695312 185.292969 98.320312 C 184.507812 97.960938 183.691406 97.671875 182.847656 97.503906 C 182.003906 97.324219 181.144531 97.234375 180.292969 97.285156 C 180.21875 97.289062 180.160156 97.339844 180.144531 97.414062 C 180.128906 97.5 180.1875 97.582031 180.273438 97.597656 C 181.089844 97.75 181.890625 97.929688 182.671875 98.175781 C 183.445312 98.425781 184.207031 98.710938 184.9375 99.066406 C 185.671875 99.414062 186.375 99.824219 187.054688 100.265625 C 187.734375 100.71875 188.375 101.226562 189.003906 101.761719 Z M 171.058594 135.328125 C 171.457031 135.367188 171.859375 135.351562 172.261719 135.316406 C 172.660156 135.269531 173.054688 135.207031 173.4375 135.089844 C 173.824219 134.976562 174.203125 134.835938 174.558594 134.632812 C 174.613281 134.597656 174.652344 134.53125 174.652344 134.460938 C 174.648438 134.355469 174.558594 134.269531 174.449219 134.273438 C 174.054688 134.289062 173.675781 134.339844 173.296875 134.375 L 172.171875 134.5 L 171.046875 134.632812 C 170.664062 134.679688 170.285156 134.71875 169.894531 134.792969 C 169.839844 134.800781 169.789062 134.839844 169.769531 134.902344 C 169.742188 134.984375 169.789062 135.078125 169.871094 135.101562 C 170.257812 135.234375 170.65625 135.292969 171.058594 135.328125 Z M 180.28125 128.050781 C 180.335938 127.992188 180.339844 127.902344 180.289062 127.839844 C 180.234375 127.773438 180.132812 127.765625 180.066406 127.820312 C 178.824219 128.851562 177.453125 129.707031 175.984375 130.328125 C 174.519531 130.949219 172.96875 131.375 171.386719 131.503906 C 169.808594 131.667969 168.207031 131.550781 166.652344 131.214844 C 165.09375 130.882812 163.585938 130.304688 162.175781 129.527344 C 162.097656 129.484375 161.988281 129.507812 161.933594 129.582031 C 161.875 129.667969 161.894531 129.78125 161.976562 129.84375 C 163.320312 130.8125 164.867188 131.503906 166.484375 131.921875 C 168.101562 132.34375 169.796875 132.46875 171.46875 132.324219 C 173.132812 132.136719 174.773438 131.691406 176.273438 130.960938 C 177.773438 130.234375 179.152344 129.253906 180.28125 128.050781 Z M 173.328125 118.894531 C 172.464844 119.4375 171.351562 119.597656 170.265625 119.527344 C 170.175781 119.519531 170.09375 119.578125 170.070312 119.667969 C 170.042969 119.765625 170.105469 119.871094 170.207031 119.894531 C 171.332031 120.164062 172.59375 120.109375 173.695312 119.523438 C 174.246094 119.246094 174.726562 118.769531 175.027344 118.203125 C 175.328125 117.640625 175.449219 117.011719 175.476562 116.414062 C 175.488281 115.203125 175.265625 114.097656 175.039062 112.988281 C 174.796875 111.878906 174.5 110.785156 174.109375 109.71875 C 174.082031 109.652344 174.007812 109.605469 173.933594 109.621094 C 173.847656 109.632812 173.789062 109.714844 173.804688 109.804688 C 174 110.910156 174.195312 112.007812 174.355469 113.113281 C 174.496094 114.210938 174.707031 115.332031 174.652344 116.378906 C 174.632812 116.898438 174.546875 117.402344 174.324219 117.839844 C 174.113281 118.277344 173.753906 118.617188 173.328125 118.894531 Z M 164.792969 97.488281 C 164.878906 97.476562 164.945312 97.398438 164.949219 97.308594 C 164.949219 97.207031 164.867188 97.121094 164.761719 97.121094 C 163.722656 97.105469 162.683594 97.25 161.667969 97.496094 C 160.652344 97.738281 159.667969 98.109375 158.730469 98.574219 C 157.796875 99.042969 156.90625 99.597656 156.101562 100.265625 C 155.292969 100.921875 154.550781 101.660156 153.9375 102.492188 C 153.890625 102.554688 153.894531 102.636719 153.945312 102.695312 C 154.003906 102.757812 154.105469 102.761719 154.167969 102.703125 C 154.917969 102.023438 155.695312 101.386719 156.519531 100.816406 C 157.34375 100.253906 158.203125 99.742188 159.097656 99.308594 C 159.988281 98.867188 160.917969 98.503906 161.867188 98.195312 C 162.816406 97.890625 163.792969 97.667969 164.792969 97.488281 Z M 147.910156 137.660156 L 146.644531 136.394531 C 146.242188 135.957031 145.886719 135.476562 145.503906 135.019531 L 144.929688 134.332031 L 144.429688 133.589844 L 143.4375 132.089844 L 143.425781 132.074219 C 143.375 131.996094 143.269531 131.96875 143.1875 132.015625 C 143.09375 132.066406 143.058594 132.175781 143.109375 132.269531 C 144.269531 134.398438 145.628906 136.472656 147.398438 138.175781 C 149.144531 139.886719 151.082031 141.421875 153.203125 142.640625 C 155.332031 143.847656 157.558594 144.871094 159.871094 145.644531 C 162.183594 146.421875 164.554688 147 166.980469 147.28125 C 167.0625 147.289062 167.136719 147.238281 167.152344 147.152344 C 167.171875 147.070312 167.113281 146.988281 167.023438 146.96875 L 167.019531 146.96875 C 165.84375 146.75 164.671875 146.460938 163.519531 146.117188 C 162.367188 145.789062 161.226562 145.410156 160.101562 144.992188 C 157.859375 144.152344 155.675781 143.148438 153.621094 141.933594 C 151.53125 140.769531 149.65625 139.273438 147.910156 137.660156 Z M 157.917969 201.082031 C 158.121094 201.160156 158.351562 201.066406 158.4375 200.863281 L 166.730469 180.433594 C 169.511719 173.628906 172.238281 166.800781 174.953125 159.972656 C 174.992188 159.875 174.945312 159.769531 174.851562 159.730469 C 174.757812 159.691406 174.648438 159.734375 174.609375 159.832031 C 171.753906 166.605469 168.90625 173.382812 166.117188 180.179688 L 157.984375 199.871094 C 153.121094 192.476562 148.179688 185.136719 143.28125 177.773438 L 135.710938 166.417969 L 128.070312 155.109375 C 128.023438 155.039062 127.925781 155.019531 127.855469 155.066406 C 127.78125 155.109375 127.761719 155.210938 127.808594 155.28125 L 135.230469 166.730469 L 142.726562 178.136719 C 147.730469 185.730469 152.691406 193.363281 157.734375 200.929688 C 157.78125 200.996094 157.839844 201.050781 157.917969 201.082031 Z M 129.53125 196.484375 C 130.039062 193.363281 130.117188 190.167969 129.65625 187.035156 C 129.1875 183.90625 128.226562 180.84375 126.789062 178.027344 C 125.339844 175.214844 123.496094 172.613281 121.3125 170.339844 C 116.957031 165.769531 111.605469 162.222656 105.78125 159.859375 C 105.703125 159.828125 105.609375 159.867188 105.578125 159.945312 C 105.542969 160.023438 105.582031 160.117188 105.660156 160.148438 L 105.671875 160.152344 C 108.527344 161.367188 111.238281 162.953125 113.785156 164.726562 C 116.324219 166.511719 118.714844 168.523438 120.800781 170.8125 C 122.898438 173.082031 124.703125 175.625 126.097656 178.375 C 127.488281 181.128906 128.402344 184.105469 128.839844 187.148438 C 129.296875 190.195312 129.238281 193.3125 128.75 196.359375 C 128.265625 199.414062 127.421875 202.414062 126.464844 205.367188 C 125.496094 208.320312 124.378906 211.230469 123.167969 214.097656 C 121.96875 216.976562 120.675781 219.820312 119.277344 222.601562 C 119.230469 222.691406 119.265625 222.804688 119.351562 222.855469 C 119.445312 222.898438 119.558594 222.867188 119.609375 222.773438 C 122.550781 217.25 125.117188 211.527344 127.15625 205.59375 C 128.175781 202.632812 129.015625 199.597656 129.53125 196.484375 Z M 74.199219 245.855469 L 68.621094 242.730469 L 62.988281 239.699219 C 61.105469 238.707031 59.214844 237.722656 57.296875 236.78125 C 57.226562 236.746094 57.136719 236.769531 57.09375 236.839844 C 57.050781 236.914062 57.070312 237.011719 57.144531 237.054688 C 58.964844 238.171875 60.808594 239.246094 62.65625 240.308594 L 68.226562 243.449219 L 73.847656 246.496094 C 75.730469 247.492188 77.617188 248.480469 79.53125 249.425781 C 79.621094 249.464844 79.726562 249.4375 79.773438 249.355469 C 79.828125 249.265625 79.804688 249.152344 79.714844 249.097656 C 77.894531 247.984375 76.050781 246.917969 74.199219 245.855469 Z M 73.761719 252.78125 C 72.957031 252.734375 72.183594 252.914062 71.460938 253.164062 C 70.730469 253.414062 70.046875 253.789062 69.457031 254.265625 C 69.394531 254.316406 69.378906 254.398438 69.417969 254.464844 C 69.460938 254.542969 69.558594 254.570312 69.632812 254.523438 C 70.265625 254.167969 70.945312 253.921875 71.632812 253.738281 C 71.921875 253.664062 72.214844 253.625 72.507812 253.585938 C 72.246094 253.789062 71.988281 253.996094 71.742188 254.214844 C 71.191406 254.726562 70.679688 255.277344 70.210938 255.859375 C 69.730469 256.4375 69.328125 257.074219 68.960938 257.71875 C 68.589844 258.367188 68.285156 259.054688 68.046875 259.757812 C 68.019531 259.839844 68.054688 259.9375 68.136719 259.984375 C 68.226562 260.03125 68.339844 260 68.390625 259.90625 C 68.734375 259.265625 69.109375 258.65625 69.507812 258.058594 C 69.902344 257.457031 70.355469 256.902344 70.808594 256.351562 C 71.269531 255.808594 71.769531 255.296875 72.296875 254.824219 C 72.816406 254.332031 73.371094 253.878906 73.953125 253.46875 L 73.960938 253.460938 C 74.054688 253.398438 74.109375 253.296875 74.117188 253.175781 C 74.128906 252.96875 73.972656 252.792969 73.761719 252.78125 Z M 132.679688 234.871094 C 132.195312 234.949219 131.726562 235.027344 131.257812 235.070312 C 130.785156 235.105469 130.320312 235.136719 129.851562 235.125 C 129.382812 235.125 128.917969 235.089844 128.449219 235.039062 C 127.980469 234.988281 127.515625 234.902344 127.035156 234.816406 C 126.960938 234.804688 126.882812 234.835938 126.835938 234.90625 C 126.78125 234.992188 126.808594 235.109375 126.898438 235.164062 C 127.328125 235.441406 127.816406 235.625 128.316406 235.757812 C 128.8125 235.890625 129.332031 235.941406 129.847656 235.949219 C 130.359375 235.941406 130.878906 235.886719 131.378906 235.753906 C 131.875 235.625 132.359375 235.4375 132.792969 235.164062 C 132.84375 235.132812 132.878906 235.070312 132.863281 235.003906 C 132.851562 234.917969 132.769531 234.855469 132.679688 234.871094 Z M 141.660156 223.753906 C 141.734375 222.875 141.6875 221.984375 141.480469 221.128906 C 141.464844 221.058594 141.402344 221.007812 141.328125 221.007812 C 141.242188 221.007812 141.167969 221.078125 141.167969 221.167969 C 141.171875 222.015625 141.113281 222.847656 140.964844 223.664062 C 140.816406 224.476562 140.601562 225.277344 140.300781 226.046875 C 140.003906 226.816406 139.625 227.550781 139.1875 228.253906 C 138.75 228.957031 138.230469 229.613281 137.664062 230.234375 C 137.605469 230.300781 137.597656 230.398438 137.648438 230.472656 C 137.707031 230.554688 137.824219 230.578125 137.910156 230.515625 C 138.632812 230.019531 139.257812 229.378906 139.789062 228.667969 C 140.324219 227.960938 140.746094 227.167969 141.066406 226.339844 C 141.378906 225.507812 141.589844 224.640625 141.660156 223.753906 Z M 140.355469 219.992188 C 141.027344 220.105469 141.695312 220.234375 142.371094 220.332031 C 143.425781 220.933594 144.464844 221.566406 145.539062 222.140625 C 146.625 222.746094 147.71875 223.335938 148.832031 223.894531 C 148.902344 223.929688 148.988281 223.90625 149.03125 223.839844 C 149.082031 223.769531 149.066406 223.675781 148.996094 223.621094 C 147.972656 222.910156 146.933594 222.226562 145.886719 221.5625 C 144.84375 220.878906 143.773438 220.253906 142.714844 219.597656 C 142.679688 219.574219 142.636719 219.554688 142.589844 219.550781 L 142.574219 219.546875 C 141.882812 219.414062 141.179688 219.320312 140.484375 219.207031 L 138.390625 218.890625 C 136.992188 218.703125 135.59375 218.515625 134.183594 218.386719 C 134.09375 218.382812 134.003906 218.441406 133.980469 218.53125 C 133.960938 218.628906 134.019531 218.734375 134.121094 218.753906 C 135.496094 219.085938 136.882812 219.355469 138.269531 219.625 Z M 136.648438 213.566406 C 137.953125 214.089844 139.273438 214.570312 140.597656 215.042969 C 141.886719 215.515625 143.199219 215.933594 144.5 216.382812 C 145.074219 216.890625 145.664062 217.378906 146.242188 217.878906 L 148.058594 219.417969 C 149.285156 220.425781 150.511719 221.433594 151.777344 222.394531 C 151.839844 222.441406 151.929688 222.4375 151.988281 222.382812 C 152.046875 222.320312 152.046875 222.222656 151.988281 222.15625 C 150.859375 221.035156 149.695312 219.957031 148.53125 218.878906 L 146.757812 217.292969 C 146.164062 216.765625 145.578125 216.226562 144.976562 215.714844 L 144.96875 215.707031 C 144.929688 215.675781 144.882812 215.648438 144.835938 215.632812 C 143.496094 215.210938 142.167969 214.761719 140.816406 214.367188 C 139.476562 213.957031 138.128906 213.5625 136.765625 213.207031 C 136.675781 213.1875 136.582031 213.234375 136.546875 213.320312 C 136.507812 213.417969 136.554688 213.527344 136.648438 213.566406 Z M 153.066406 203.171875 L 153.058594 203.144531 C 153.046875 203.121094 153.027344 203.089844 153.007812 203.066406 C 152.285156 202.230469 151.5625 201.390625 150.785156 200.597656 C 150.722656 200.535156 150.625 200.519531 150.550781 200.570312 C 150.464844 200.625 150.4375 200.742188 150.492188 200.828125 C 151.078125 201.742188 151.71875 202.617188 152.363281 203.488281 C 152.78125 204.699219 153.242188 205.894531 153.726562 207.082031 C 153.96875 207.683594 154.234375 208.273438 154.492188 208.867188 C 154.75 209.464844 155.03125 210.050781 155.324219 210.632812 C 155.355469 210.699219 155.429688 210.738281 155.503906 210.71875 C 155.59375 210.695312 155.640625 210.609375 155.617188 210.523438 C 155.445312 209.894531 155.269531 209.265625 155.066406 208.652344 C 154.867188 208.035156 154.671875 207.414062 154.453125 206.808594 C 154.015625 205.585938 153.5625 204.371094 153.066406 203.171875 Z M 141.976562 185.867188 C 140.726562 186.34375 140.097656 187.742188 140.578125 188.988281 L 145.183594 201.066406 L 147.027344 200.238281 L 150.265625 200.769531 L 145.109375 187.265625 C 144.632812 186.015625 143.230469 185.386719 141.976562 185.867188 Z M 125.835938 137.300781 C 128.019531 134.421875 130.085938 131.101562 132.011719 127.5 C 133.890625 129.230469 135.597656 130.621094 136.8125 131.570312 C 136.511719 132.09375 136.152344 132.59375 135.769531 133.066406 C 135.046875 133.921875 134.203125 134.6875 133.253906 135.304688 C 133.175781 135.355469 133.144531 135.457031 133.183594 135.539062 C 133.226562 135.632812 133.335938 135.679688 133.429688 135.632812 C 134.519531 135.144531 135.480469 134.402344 136.300781 133.535156 C 136.714844 133.105469 137.085938 132.632812 137.40625 132.117188 C 137.402344 132.183594 137.40625 132.253906 137.398438 132.324219 C 137.34375 132.972656 137.210938 133.613281 137.035156 134.242188 C 136.691406 135.503906 136.101562 136.703125 135.324219 137.789062 C 135.285156 137.851562 135.285156 137.9375 135.339844 137.992188 C 135.40625 138.054688 135.507812 138.054688 135.566406 137.992188 C 136.539062 137.011719 137.261719 135.777344 137.722656 134.453125 C 137.929688 133.847656 138.0625 133.222656 138.148438 132.589844 C 138.488281 132.839844 138.679688 132.972656 138.679688 132.972656 C 138.679688 132.972656 138.679688 131.050781 138.671875 127.847656 C 138.667969 126.464844 138.664062 124.84375 138.65625 123.03125 C 138.246094 123.523438 137.722656 123.726562 137.042969 123.515625 C 135.992188 123.1875 134.640625 122.132812 133.238281 120.636719 C 130.246094 117.4375 127.039062 112.21875 126.109375 107.710938 C 125.894531 106.671875 125.804688 105.671875 125.859375 104.738281 C 125.976562 102.914062 126.671875 101.359375 128.195312 100.34375 C 131.464844 98.171875 134.015625 99.125 135.828125 100.828125 C 135.574219 101.605469 135.386719 102.40625 135.285156 103.222656 C 135.175781 104.152344 135.15625 105.089844 135.257812 106.019531 C 135.355469 106.949219 135.546875 107.867188 135.875 108.734375 C 135.90625 108.816406 135.988281 108.871094 136.078125 108.859375 C 136.179688 108.84375 136.25 108.746094 136.238281 108.644531 C 136.105469 107.75 136.007812 106.863281 135.984375 105.972656 C 135.96875 105.082031 135.996094 104.195312 136.101562 103.320312 C 136.167969 102.683594 136.289062 102.0625 136.425781 101.4375 C 137.382812 102.507812 138.089844 103.738281 138.539062 104.664062 C 138.535156 103.914062 138.527344 103.160156 138.519531 102.402344 C 138.488281 99.175781 143.324219 99.085938 143.015625 89 C 142.914062 85.753906 145.621094 83.15625 148.742188 84.066406 C 159.25 87.121094 175.808594 91.632812 192.574219 81.683594 C 192.699219 81.609375 192.824219 81.546875 192.945312 81.472656 C 192.945312 81.472656 192.390625 63.484375 177.699219 59.613281 C 165.832031 56.488281 154.402344 53.289062 143.445312 56.507812 C 141.207031 57.953125 129.035156 66.066406 122.441406 75.722656 C 120.257812 71.109375 121.21875 65.574219 124.933594 62.066406 C 127.15625 59.964844 129.996094 57.789062 133.394531 56.1875 C 134.238281 55.789062 135.125 55.511719 136.027344 55.332031 C 129.773438 49.757812 119.515625 44.820312 109.144531 57.929688 C 92.511719 78.957031 108.863281 106.5625 104.980469 121.503906 C 104.605469 122.957031 104.179688 124.34375 103.71875 125.664062 C 102.554688 127.628906 101.261719 129.511719 99.804688 131.269531 C 98.320312 133.121094 96.667969 134.828125 94.90625 136.414062 C 93.140625 138.003906 91.242188 139.445312 89.25 140.757812 C 89.183594 140.804688 89.160156 140.894531 89.199219 140.964844 C 89.242188 141.042969 89.339844 141.070312 89.414062 141.027344 C 91.527344 139.878906 93.515625 138.492188 95.359375 136.9375 C 97.210938 135.386719 98.898438 133.648438 100.441406 131.792969 C 101.09375 130.980469 101.714844 130.148438 102.308594 129.296875 C 98.035156 139.210938 92.230469 144.460938 92.230469 144.460938 C 92.230469 144.460938 117.742188 147.972656 125.835938 137.300781 Z M 182.667969 108.691406 C 182.667969 110.144531 183.480469 111.324219 184.484375 111.324219 C 185.484375 111.324219 186.300781 110.144531 186.300781 108.691406 C 186.300781 107.234375 185.484375 106.054688 184.484375 106.054688 C 183.480469 106.054688 182.667969 107.234375 182.667969 108.691406 Z M 159.902344 106.054688 C 160.90625 106.054688 161.71875 107.234375 161.71875 108.691406 C 161.71875 110.144531 160.90625 111.324219 159.902344 111.324219 C 158.902344 111.324219 158.089844 110.144531 158.089844 108.691406 C 158.089844 107.234375 158.902344 106.054688 159.902344 106.054688 "/>
</g>
</g>
</svg>
