<?xml version="1.0" encoding="UTF-8"?>
<svg xmlns="http://www.w3.org/2000/svg" xmlns:xlink="http://www.w3.org/1999/xlink" width="375pt" height="374.999991pt" viewBox="0 0 375 374.999991" version="1.2">
<defs>
<clipPath id="clip1">
  <path d="M 105 211 L 271 211 L 271 303.628906 L 105 303.628906 Z M 105 211 "/>
</clipPath>
<clipPath id="clip2">
  <path d="M 102 281 L 275 281 L 275 303.628906 L 102 303.628906 Z M 102 281 "/>
</clipPath>
</defs>
<g id="surface1">
<path style=" stroke:none;fill-rule:nonzero;fill:rgb(54.119873%,63.529968%,83.139038%);fill-opacity:1;" d="M 236.410156 141.734375 C 230.101562 113.597656 223.6875 87.214844 187.972656 85.695312 C 152.253906 87.214844 145.84375 113.597656 139.535156 141.734375 C 136.324219 156.417969 136.324219 189.355469 139.535156 204.039062 C 145.84375 232.175781 152.253906 258.558594 187.972656 260.078125 C 223.691406 258.558594 230.101562 232.175781 236.410156 204.039062 C 239.621094 189.355469 239.621094 156.414062 236.410156 141.734375 Z M 236.410156 141.734375 "/>
<path style=" stroke:none;fill-rule:nonzero;fill:rgb(100%,100%,100%);fill-opacity:1;" d="M 182.398438 216.625 C 176.03125 209.15625 143.210938 213.554688 134.769531 213.183594 C 97.796875 211.828125 106.183594 271.839844 110.074219 288.464844 C 117.503906 288.914062 125.9375 291.234375 133.21875 292.332031 C 143.546875 293.878906 153.332031 296.445312 163.664062 298.691406 C 185.882812 303.65625 209.640625 302.679688 232.140625 298.25 C 241.550781 296.414062 255.355469 294.011719 265.917969 288.234375 C 269.847656 271.277344 277.96875 211.835938 241.175781 213.183594 C 233.464844 213.523438 196.851562 211.859375 193.832031 214.898438 "/>
<g clip-path="url(#clip1)" clip-rule="nonzero">
<path style=" stroke:none;fill-rule:nonzero;fill:rgb(25.489807%,26.269531%,43.919373%);fill-opacity:1;" d="M 195.238281 303.144531 C 184.105469 303.144531 173.472656 302.023438 163.417969 299.777344 C 160.53125 299.148438 157.652344 298.488281 154.863281 297.847656 C 147.453125 296.148438 140.453125 294.539062 133.050781 293.433594 C 130.3125 293.019531 127.484375 292.449219 124.492188 291.847656 C 119.625 290.867188 114.589844 289.855469 110.003906 289.578125 C 109.511719 289.546875 109.09375 289.199219 108.984375 288.71875 C 105.101562 272.125 101.265625 236.511719 114.542969 220.527344 C 119.460938 214.605469 126.285156 211.765625 134.808594 212.074219 C 136.851562 212.164062 140.472656 211.960938 144.667969 211.726562 C 146.488281 211.625 148.441406 211.515625 150.464844 211.421875 C 151.070312 211.386719 151.605469 211.863281 151.632812 212.476562 C 151.664062 213.089844 151.1875 213.609375 150.570312 213.640625 C 148.554688 213.734375 146.609375 213.84375 144.792969 213.945312 C 140.359375 214.191406 136.863281 214.386719 134.71875 214.292969 C 126.925781 214.007812 120.71875 216.582031 116.269531 221.941406 C 103.753906 237.011719 107.246094 270.875 110.976562 287.417969 C 115.480469 287.765625 120.28125 288.734375 124.9375 289.671875 C 127.902344 290.265625 130.699219 290.832031 133.382812 291.234375 C 140.871094 292.355469 147.910156 293.972656 155.367188 295.683594 C 158.148438 296.320312 161.023438 296.980469 163.902344 297.609375 C 184.347656 302.175781 207.230469 302.023438 231.921875 297.160156 L 233.8125 296.792969 C 242.890625 295.042969 255.277344 292.65625 264.9375 287.5 C 268.652344 271.113281 272.203125 237.003906 259.65625 221.925781 C 255.207031 216.578125 249.003906 214.011719 241.214844 214.296875 C 239.066406 214.390625 234.851562 214.332031 229.515625 214.261719 C 227.417969 214.234375 225.175781 214.203125 222.878906 214.179688 C 222.261719 214.175781 221.765625 213.671875 221.769531 213.058594 C 221.777344 212.445312 222.289062 211.980469 222.902344 211.960938 C 225.203125 211.984375 227.445312 212.011719 229.546875 212.039062 C 234.636719 212.109375 239.03125 212.167969 241.125 212.074219 C 249.652344 211.761719 256.464844 214.601562 261.382812 220.511719 C 274.609375 236.410156 270.84375 271.925781 267.007812 288.488281 C 266.933594 288.796875 266.734375 289.058594 266.457031 289.210938 C 256.425781 294.699219 243.601562 297.171875 234.238281 298.976562 L 232.355469 299.339844 C 219.472656 301.875 207.070312 303.144531 195.238281 303.144531 Z M 195.238281 303.144531 "/>
</g>
<path style=" stroke:none;fill-rule:nonzero;fill:rgb(25.489807%,26.269531%,43.919373%);fill-opacity:1;" d="M 133.476562 291.226562 C 133.007812 291.226562 132.574219 290.933594 132.417969 290.472656 C 130.191406 284.023438 129.859375 275.496094 133.152344 272.390625 C 133.597656 271.96875 134.304688 271.984375 134.734375 272.429688 C 135.160156 272.875 135.140625 273.578125 134.691406 274 C 132.445312 276.121094 132.371094 283.484375 134.53125 289.753906 C 134.734375 290.335938 134.421875 290.964844 133.835938 291.164062 C 133.71875 291.207031 133.59375 291.226562 133.476562 291.226562 Z M 133.476562 291.226562 "/>
<path style=" stroke:none;fill-rule:nonzero;fill:rgb(25.489807%,26.269531%,43.919373%);fill-opacity:1;" d="M 235.210938 293.667969 C 234.964844 293.667969 234.714844 293.585938 234.507812 293.417969 C 234.027344 293.03125 233.953125 292.332031 234.34375 291.855469 C 237.425781 288.082031 236.03125 279.441406 234.800781 278.359375 C 234.335938 277.953125 234.292969 277.25 234.703125 276.792969 C 235.113281 276.332031 235.820312 276.289062 236.28125 276.695312 C 238.53125 278.675781 239.789062 288.714844 236.078125 293.253906 C 235.859375 293.527344 235.535156 293.667969 235.210938 293.667969 Z M 235.210938 293.667969 "/>
<g clip-path="url(#clip2)" clip-rule="nonzero">
<path style=" stroke:none;fill-rule:nonzero;fill:rgb(25.489807%,26.269531%,43.919373%);fill-opacity:1;" d="M 195.238281 303.148438 C 184.105469 303.148438 173.472656 302.023438 163.417969 299.777344 C 160.53125 299.148438 157.652344 298.488281 154.863281 297.847656 C 147.453125 296.144531 140.453125 294.539062 133.050781 293.433594 C 130.316406 293.019531 127.496094 292.453125 124.507812 291.847656 C 117.046875 290.347656 109.335938 288.792969 103.324219 289.84375 C 102.71875 289.949219 102.136719 289.542969 102.03125 288.941406 C 101.925781 288.335938 102.332031 287.757812 102.9375 287.652344 C 109.367188 286.535156 117.289062 288.128906 124.949219 289.671875 C 127.910156 290.269531 130.707031 290.832031 133.386719 291.234375 C 140.871094 292.355469 147.914062 293.972656 155.367188 295.683594 C 158.148438 296.320312 161.023438 296.980469 163.902344 297.609375 C 184.347656 302.175781 207.230469 302.023438 231.921875 297.160156 L 232.105469 297.125 C 244.191406 294.867188 262.460938 291.449219 272.714844 282.273438 C 273.175781 281.863281 273.882812 281.898438 274.296875 282.355469 C 274.710938 282.808594 274.671875 283.511719 274.214844 283.921875 C 263.492188 293.519531 244.851562 297.003906 232.515625 299.308594 L 232.347656 299.339844 C 219.472656 301.878906 207.070312 303.144531 195.238281 303.148438 Z M 195.238281 303.148438 "/>
</g>
<path style=" stroke:none;fill-rule:nonzero;fill:rgb(96.078491%,81.17981%,75.689697%);fill-opacity:1;" d="M 206.253906 192.246094 C 194.285156 192.335938 182.316406 192.335938 170.34375 192.246094 C 170.40625 205.410156 170.539062 218.578125 170.742188 231.746094 C 176.972656 231.90625 188.296875 272.171875 188.296875 272.171875 C 188.296875 272.171875 200.382812 231.886719 205.855469 231.746094 C 206.058594 218.578125 206.191406 205.410156 206.253906 192.246094 Z M 206.253906 192.246094 "/>
<path style=" stroke:none;fill-rule:nonzero;fill:rgb(96.078491%,81.17981%,75.689697%);fill-opacity:1;" d="M 238.441406 154.863281 C 238.703125 162.164062 234.128906 167.980469 228.402344 167.890625 C 222.671875 167.785156 217.984375 161.484375 217.84375 153.789062 C 217.707031 146.089844 222.066406 140.132812 227.679688 140.625 C 233.28125 141.121094 238.179688 147.566406 238.441406 154.863281 Z M 238.441406 154.863281 "/>
<path style=" stroke:none;fill-rule:nonzero;fill:rgb(96.078491%,81.17981%,75.689697%);fill-opacity:1;" d="M 158.101562 153.789062 C 157.960938 161.488281 153.273438 167.785156 147.542969 167.890625 C 141.816406 167.980469 137.242188 162.164062 137.503906 154.863281 C 137.769531 147.566406 142.664062 141.121094 148.265625 140.625 C 153.878906 140.132812 158.238281 146.09375 158.101562 153.789062 Z M 158.101562 153.789062 "/>
<path style=" stroke:none;fill-rule:nonzero;fill:rgb(96.078491%,81.17981%,75.689697%);fill-opacity:1;" d="M 231.582031 150.0625 C 232.277344 174.035156 211.980469 201.652344 187.972656 201.988281 C 163.964844 201.652344 143.667969 174.035156 144.363281 150.0625 C 145.21875 126.039062 165.371094 102.601562 187.972656 102.390625 C 210.574219 102.601562 230.730469 126.039062 231.582031 150.0625 Z M 231.582031 150.0625 "/>
<path style=" stroke:none;fill-rule:nonzero;fill:rgb(25.489807%,26.269531%,43.919373%);fill-opacity:1;" d="M 165.453125 145.835938 C 162.40625 145.921875 159.886719 148.453125 159.84375 151.449219 C 159.804688 154.449219 162.269531 156.839844 165.332031 156.792969 C 168.398438 156.742188 170.902344 154.246094 170.925781 151.207031 C 170.949219 148.171875 168.496094 145.753906 165.453125 145.835938 Z M 165.453125 145.835938 "/>
<path style=" stroke:none;fill-rule:nonzero;fill:rgb(96.078491%,81.17981%,75.689697%);fill-opacity:1;" d="M 165.242188 157.902344 C 163.457031 157.902344 161.792969 157.21875 160.558594 155.976562 C 159.355469 154.761719 158.703125 153.148438 158.726562 151.433594 C 158.777344 147.839844 161.78125 144.832031 165.421875 144.726562 L 165.605469 144.722656 C 167.335938 144.722656 168.957031 145.390625 170.167969 146.605469 C 171.390625 147.828125 172.058594 149.46875 172.042969 151.21875 C 172.015625 154.84375 169.015625 157.84375 165.351562 157.902344 Z M 165.605469 146.945312 L 165.484375 146.949219 C 163.023438 147.015625 160.996094 149.042969 160.964844 151.464844 C 160.949219 152.578125 161.371094 153.628906 162.152344 154.417969 C 162.964844 155.230469 164.0625 155.679688 165.246094 155.679688 L 165.316406 155.679688 C 167.773438 155.640625 169.789062 153.632812 169.808594 151.199219 C 169.816406 150.046875 169.378906 148.96875 168.582031 148.167969 C 167.792969 147.378906 166.734375 146.945312 165.605469 146.945312 Z M 165.605469 146.945312 "/>
<path style=" stroke:none;fill-rule:nonzero;fill:rgb(25.489807%,26.269531%,43.919373%);fill-opacity:1;" d="M 210.492188 145.835938 C 207.449219 145.753906 204.996094 148.171875 205.019531 151.207031 C 205.042969 154.242188 207.546875 156.742188 210.609375 156.792969 C 213.675781 156.839844 216.140625 154.449219 216.097656 151.449219 C 216.054688 148.453125 213.539062 145.921875 210.492188 145.835938 Z M 210.492188 145.835938 "/>
<path style=" stroke:none;fill-rule:nonzero;fill:rgb(96.078491%,81.17981%,75.689697%);fill-opacity:1;" d="M 210.703125 157.902344 C 210.699219 157.902344 210.699219 157.902344 210.703125 157.902344 L 210.59375 157.902344 C 206.929688 157.84375 203.929688 154.84375 203.902344 151.214844 C 203.886719 149.46875 204.554688 147.828125 205.777344 146.605469 C 206.988281 145.394531 208.605469 144.722656 210.335938 144.722656 L 210.523438 144.726562 C 214.164062 144.828125 217.164062 147.835938 217.21875 151.433594 C 217.242188 153.148438 216.589844 154.761719 215.382812 155.976562 C 214.148438 157.21875 212.488281 157.902344 210.703125 157.902344 Z M 210.335938 146.945312 C 209.207031 146.945312 208.152344 147.378906 207.363281 148.167969 C 206.5625 148.972656 206.128906 150.046875 206.136719 151.199219 C 206.15625 153.632812 208.171875 155.640625 210.628906 155.679688 L 210.699219 155.679688 C 211.882812 155.679688 212.980469 155.230469 213.789062 154.417969 C 214.574219 153.628906 214.996094 152.578125 214.980469 151.464844 C 214.945312 149.042969 212.917969 147.015625 210.460938 146.949219 Z M 210.335938 146.945312 "/>
<path style=" stroke:none;fill-rule:nonzero;fill:rgb(25.489807%,26.269531%,43.919373%);fill-opacity:1;" d="M 187.972656 164.359375 C 186.292969 164.359375 184.929688 165.71875 184.929688 167.386719 C 186.957031 167.382812 188.988281 167.382812 191.015625 167.386719 C 191.015625 165.71875 189.648438 164.359375 187.972656 164.359375 Z M 187.972656 164.359375 "/>
<path style=" stroke:none;fill-rule:nonzero;fill:rgb(100%,100%,100%);fill-opacity:1;" d="M 187.972656 184.691406 C 193.519531 184.6875 198.039062 181.074219 198.039062 176.652344 C 191.328125 176.652344 184.617188 176.652344 177.910156 176.652344 C 177.910156 181.070312 182.425781 184.6875 187.972656 184.691406 Z M 187.972656 184.691406 "/>
<path style=" stroke:none;fill-rule:nonzero;fill:rgb(54.119873%,63.529968%,83.139038%);fill-opacity:1;" d="M 219.734375 110.71875 C 211.605469 103.398438 184.671875 93.050781 175.25 98.871094 L 155.96875 116.148438 C 162.128906 131.578125 169.863281 136.011719 175.953125 137.8125 C 189.101562 141.703125 192.707031 133.9375 199.792969 133.925781 C 212.222656 133.90625 226.117188 140.789062 231.496094 154.242188 C 232.039062 142.355469 228.480469 118.597656 219.734375 110.71875 Z M 219.734375 110.71875 "/>
<path style=" stroke:none;fill-rule:nonzero;fill:rgb(90.589905%,90.589905%,90.589905%);fill-opacity:1;" d="M 233.96875 258.605469 C 232.828125 258.175781 228.894531 258.234375 226.042969 258.234375 C 222.953125 258.234375 204.417969 258.214844 202.605469 258.398438 C 201.148438 258.546875 201.078125 261.125 201.976562 261.476562 C 203.300781 262 225.636719 261.941406 233.3125 261.882812 C 235.5 261.867188 235.027344 259.003906 233.96875 258.605469 Z M 233.96875 258.605469 "/>
<path style=" stroke:none;fill-rule:nonzero;fill:rgb(72.158813%,88.238525%,94.509888%);fill-opacity:1;" d="M 164.96875 108.167969 C 172.011719 105.628906 204.589844 105.628906 211.632812 108.167969 C 214.9375 109.359375 218.125 111.835938 220.726562 114.71875 C 225.796875 105.980469 237.59375 75.339844 227.832031 73.265625 C 215.894531 70.726562 160.703125 70.726562 148.769531 73.265625 C 139.007812 75.339844 150.800781 105.980469 155.871094 114.71875 C 158.472656 111.835938 161.664062 109.359375 164.96875 108.167969 Z M 164.96875 108.167969 "/>
<path style=" stroke:none;fill-rule:nonzero;fill:rgb(95.689392%,95.689392%,95.689392%);fill-opacity:1;" d="M 202.042969 86.125 C 201.066406 81.515625 195.523438 77.589844 190.53125 76.265625 C 186.480469 75.1875 181.777344 75.917969 178.589844 78.8125 C 169.878906 86.734375 175.121094 102.132812 187.003906 103.035156 C 196.433594 103.746094 203.960938 95.195312 202.042969 86.125 Z M 202.042969 86.125 "/>
<path style=" stroke:none;fill-rule:nonzero;fill:rgb(54.119873%,63.529968%,83.139038%);fill-opacity:1;" d="M 191.488281 92.542969 C 191.472656 90.332031 191.550781 88.117188 191.394531 85.914062 C 191.292969 84.566406 191.316406 83.203125 191.15625 81.871094 C 191.066406 81.128906 190.953125 80.644531 189.089844 80.808594 L 189.089844 80.8125 C 188.714844 80.8125 187.71875 80.828125 187.386719 80.832031 C 185.726562 80.859375 185.597656 81.082031 185.355469 82.378906 C 184.75 85.605469 185.058594 88.902344 184.941406 92.15625 C 184.902344 93.335938 185.082031 96.183594 185.082031 97.300781 C 185.078125 98.554688 189.925781 98.011719 191.394531 97.707031 C 191.925781 97.597656 191.5 94.285156 191.488281 92.542969 Z M 191.488281 92.542969 "/>
<path style=" stroke:none;fill-rule:nonzero;fill:rgb(54.119873%,63.529968%,83.139038%);fill-opacity:1;" d="M 191.058594 86.265625 C 189.097656 86.28125 187.128906 86.203125 185.171875 86.363281 C 183.976562 86.460938 182.765625 86.4375 181.582031 86.597656 C 180.925781 86.683594 180.492188 86.800781 180.640625 88.652344 L 180.640625 88.648438 C 180.640625 89.019531 180.65625 90.011719 180.660156 90.339844 C 180.683594 91.992188 180.882812 92.117188 182.03125 92.359375 C 184.898438 92.960938 187.828125 92.65625 190.71875 92.769531 C 191.765625 92.808594 194.292969 92.628906 195.285156 92.632812 C 196.398438 92.636719 195.917969 87.820312 195.644531 86.359375 C 195.546875 85.832031 192.605469 86.253906 191.058594 86.265625 Z M 191.058594 86.265625 "/>
</g>
</svg>
